<?xml version="1.0" standalone="no"?>
<!DOCTYPE svg PUBLIC "-//W3C//DTD SVG 20010904//EN"
 "http://www.w3.org/TR/2001/REC-SVG-20010904/DTD/svg10.dtd">
<svg version="1.0" xmlns="http://www.w3.org/2000/svg"
 width="500.000000pt" height="500.000000pt" viewBox="0 0 500.000000 500.000000"
 preserveAspectRatio="xMidYMid meet">

<g transform="translate(0.000000,500.000000) scale(0.100000,-0.100000)"
fill="#000000" stroke="none">
<path d="M2405 4230 c-33 -5 -94 -14 -135 -20 -41 -6 -127 -27 -190 -47 -99
-32 -121 -42 -159 -80 -24 -24 -48 -43 -54 -43 -19 0 -156 -149 -162 -177 -4
-15 -12 -38 -18 -51 -8 -17 -7 -35 7 -78 l17 -55 -30 -35 c-17 -19 -32 -40
-32 -47 -1 -7 -3 -19 -4 -27 0 -8 -5 -33 -9 -55 -30 -155 -56 -309 -61 -356
l-6 -57 -297 169 c-328 187 -334 189 -428 148 -106 -47 -252 -156 -279 -209
-24 -46 -19 -104 9 -131 14 -13 249 -148 523 -300 346 -191 497 -280 494 -290
-2 -8 -3 -25 -3 -39 1 -78 1 -151 0 -200 -1 -37 8 -80 26 -130 32 -89 31 -161
-4 -229 -12 -24 -19 -50 -16 -58 3 -8 1 -23 -4 -33 -6 -10 -110 -76 -233 -145
-135 -77 -236 -141 -259 -164 -75 -79 -72 -190 8 -268 48 -46 86 -58 162 -51
39 4 76 23 212 110 91 57 170 108 177 111 6 4 21 -10 37 -37 14 -24 35 -50 48
-58 15 -10 34 -45 53 -97 26 -69 32 -79 42 -65 11 15 16 8 43 -47 16 -35 30
-69 30 -76 0 -6 5 -13 10 -15 6 -2 13 -21 16 -43 3 -22 7 -51 10 -64 l5 -24
23 22 c12 11 25 21 29 21 4 0 17 -21 30 -46 l24 -46 38 46 c20 25 41 46 44 46
4 0 20 -27 36 -60 16 -33 32 -60 36 -60 4 0 15 10 23 21 15 22 15 21 32 -20
l17 -42 24 23 c20 19 25 20 33 8 5 -8 10 -10 10 -4 0 5 6 19 14 29 13 18 15
17 31 -20 l17 -40 16 33 c17 34 32 42 32 16 0 -14 2 -14 16 -3 14 12 19 10 38
-14 25 -32 36 -34 36 -9 0 29 12 34 33 15 19 -17 19 -17 12 6 -4 13 -3 22 1
19 103 -49 124 -53 124 -22 0 11 7 13 26 8 24 -6 26 -5 19 16 -8 24 2 22 36
-7 15 -12 18 -6 35 57 18 72 28 85 39 50 6 -20 82 -90 97 -90 4 0 8 20 8 44 0
25 4 47 9 50 5 4 23 -5 39 -19 34 -28 34 -29 47 48 7 41 12 45 30 21 9 -13 14
1 23 76 6 51 14 95 17 98 3 3 16 -5 29 -17 l24 -23 18 82 c15 73 22 86 59 121
23 22 46 53 51 70 l9 29 175 -112 c145 -92 183 -112 222 -116 76 -7 114 5 162
51 80 78 83 189 8 268 -23 24 -122 86 -259 164 -123 69 -227 134 -233 145 -5
10 -7 25 -4 33 3 8 -4 34 -16 58 -35 68 -37 140 -4 229 18 50 27 94 26 130 -1
49 -1 126 0 200 0 14 -1 31 -3 39 -3 10 149 100 494 291 274 151 510 286 523
299 28 27 32 86 9 131 -27 53 -173 162 -279 209 -94 41 -100 39 -428 -148
l-297 -169 -6 57 c-9 89 -46 283 -61 320 -17 41 -18 101 -3 101 17 0 2 153
-21 213 -10 26 -30 64 -45 83 -14 19 -24 38 -21 43 10 16 -112 121 -175 151
-34 16 -65 33 -68 38 -7 11 -184 66 -268 83 -35 7 -63 16 -63 20 0 3 -33 9
-72 12 -40 4 -93 9 -118 11 -25 3 -72 1 -105 -4z m59 -88 c-64 -47 -124 -119
-157 -190 -29 -62 -32 -75 -32 -174 0 -59 -3 -104 -7 -100 -9 10 -38 112 -38
136 0 17 2 18 10 6 7 -11 10 -2 10 31 0 25 7 69 15 97 9 29 13 57 10 63 -8 12
35 86 68 117 29 27 67 40 121 41 l39 1 -39 -28z m-167 -9 c-2 -10 -17 -47 -35
-83 -41 -83 -56 -166 -47 -250 16 -140 13 -152 -25 -82 -10 20 -19 33 -19 27
-1 -5 11 -30 24 -54 33 -57 27 -63 -8 -8 -65 99 -86 261 -46 343 20 43 89 114
111 114 7 0 6 -6 -4 -17 -33 -39 -28 -46 8 -10 44 43 45 43 41 20z m237 -29
c-61 -36 -119 -86 -135 -116 -5 -10 13 5 39 31 27 27 69 59 92 71 49 25 121
52 127 47 1 -2 -33 -29 -77 -61 -115 -82 -184 -174 -240 -319 l-28 -71 -7 36
c-11 56 13 172 50 245 38 75 20 64 -25 -17 -37 -65 -29 -27 8 44 26 48 108
130 122 121 4 -2 27 2 51 9 76 24 85 17 23 -20z m232 2 c-27 -16 -54 -39 -36
-30 8 4 -17 -27 -57 -69 -39 -42 -92 -111 -117 -154 -48 -81 -61 -92 -25 -20
12 23 16 38 11 32 -6 -5 -29 -46 -52 -90 -23 -44 -38 -69 -35 -55 10 37 91
206 115 240 12 17 19 30 16 30 -11 0 -103 -129 -139 -195 -21 -38 -35 -59 -31
-45 8 31 58 131 90 182 13 21 22 38 20 38 -12 0 -112 -140 -138 -193 -19 -39
-28 -51 -24 -32 11 52 94 208 131 247 48 50 98 88 123 93 12 2 30 8 41 14 49
27 150 33 107 7z m-632 -48 c-40 -78 -36 -236 10 -349 15 -38 19 -56 10 -48
-11 9 -14 8 -14 -2 -1 -29 -60 52 -74 102 -17 57 -22 174 -7 183 4 3 11 23 15
43 7 47 39 100 59 100 14 0 14 -3 1 -29z m-92 -116 c-4 -128 -2 -144 21 -210
14 -40 23 -72 21 -72 -2 0 -15 21 -28 48 -29 55 -32 52 -11 -8 19 -54 14 -61
-13 -18 -26 41 -41 79 -58 143 l-14 50 6 -55 c3 -30 14 -75 25 -99 10 -24 17
-46 14 -49 -2 -2 1 -14 7 -26 8 -16 3 -14 -22 9 -41 38 -80 119 -80 168 0 45
29 181 37 173 4 -3 17 9 31 27 14 17 22 25 20 17 -17 -49 -19 -65 -8 -50 6 8
20 32 31 53 10 20 21 37 22 37 2 0 2 -62 -1 -138z m906 120 c8 -5 -23 -15 -79
-26 -50 -10 -93 -15 -96 -12 -3 3 6 8 21 12 14 3 24 10 21 14 -11 17 108 27
133 12z m62 -42 c20 -6 14 -8 -27 -9 -28 -1 -54 -5 -57 -10 -3 -5 -27 -14 -52
-20 -43 -11 -124 -47 -124 -55 0 -2 28 7 61 21 41 16 87 26 138 28 58 3 67 2
36 -4 -93 -19 -221 -86 -313 -164 -28 -23 -24 -17 13 22 l50 53 -51 -36 c-29
-20 -71 -61 -94 -91 -23 -30 -44 -55 -47 -55 -5 0 16 39 40 74 12 16 15 26 8
22 -25 -16 10 36 61 90 34 36 69 61 114 80 82 35 76 44 -7 10 -73 -29 -90 -27
-30 4 85 43 214 61 281 40z m-1122 -125 c1 -69 23 -164 49 -205 14 -23 14 -24
0 -10 -9 8 -30 40 -47 70 -29 51 -31 52 -24 20 3 -19 13 -48 21 -65 9 -16 12
-27 8 -23 -5 4 -14 3 -20 -2 -9 -8 -20 -2 -40 22 l-28 33 6 -30 7 -30 -15 28
c-9 15 -20 25 -25 22 -12 -7 -30 36 -30 70 0 28 20 75 32 75 4 0 8 -11 8 -24
0 -31 30 -44 31 -13 0 21 1 21 9 2 7 -15 9 -8 11 30 l2 50 7 -50 7 -50 1 47
c2 42 16 98 25 98 2 0 4 -29 5 -65z m1306 -13 c57 -40 74 -69 86 -147 8 -60 7
-77 -9 -125 l-20 -55 0 66 c-1 76 -22 155 -52 193 -24 30 -82 62 -136 75 -33
8 -34 9 -11 10 15 1 51 -8 80 -19 57 -22 54 -12 -7 20 l-40 21 35 -6 c19 -3
53 -18 74 -33z m-186 21 c-10 -2 -28 -2 -40 0 -13 2 -5 4 17 4 22 1 32 -1 23
-4z m77 -36 c78 -23 158 -137 142 -203 -2 -12 -7 -4 -12 22 -13 74 -44 116
-110 147 -33 16 -76 31 -95 33 -29 3 -28 2 12 -10 80 -23 111 -47 141 -108 18
-34 27 -67 25 -84 -3 -23 -6 -17 -17 29 -9 40 -23 69 -43 90 l-30 32 26 -33
c22 -29 26 -43 26 -100 0 -94 -17 -112 -22 -24 -4 77 -14 95 -70 125 l-33 18
28 -21 c42 -33 57 -71 56 -142 -1 -83 -13 -118 -22 -63 -4 22 -7 54 -7 71 0
32 -39 118 -53 115 -4 -1 -23 6 -43 14 -69 28 -186 14 -284 -34 l-45 -23 30
26 c17 14 43 30 58 37 21 9 25 14 15 21 -8 5 2 7 27 3 28 -4 34 -3 20 4 l-20
9 20 4 c11 3 2 3 -20 1 -31 -3 -36 -2 -23 7 19 12 89 28 163 37 43 6 47 8 25
15 -39 12 89 -2 135 -15z m-97 -136 c53 -27 76 -72 77 -148 0 -34 -5 -67 -12
-74 -9 -9 -9 -2 -2 30 35 157 -129 254 -290 171 -23 -11 -41 -18 -41 -15 0 3
24 17 53 30 67 32 160 34 215 6z m-37 -17 c46 -23 28 -27 -22 -5 -24 11 -36
20 -26 20 10 1 32 -6 48 -15z m0 -29 c48 -25 69 -62 68 -119 l-1 -51 -8 51
c-8 57 -17 77 -30 69 -5 -3 -12 0 -16 6 -12 20 -88 49 -134 49 -35 1 -41 3
-25 10 26 12 110 3 146 -15z m-56 -39 c44 -19 68 -58 68 -110 0 -58 -28 -102
-88 -138 -40 -24 -44 -28 -20 -23 16 3 56 8 89 11 61 5 137 32 151 54 5 9 4
11 -3 6 -20 -12 -13 0 10 20 19 16 20 16 9 1 -12 -15 -11 -17 7 -14 12 2 30
11 42 22 20 18 20 18 20 -41 0 -35 -10 -87 -23 -126 -27 -79 -18 -81 14 -3 14
34 26 51 30 43 15 -24 21 42 10 105 -15 88 -14 97 10 60 12 -18 25 -33 30 -33
5 0 9 -10 9 -21 0 -17 3 -19 14 -10 12 10 17 3 31 -40 10 -29 17 -75 17 -103
0 -55 -35 -158 -77 -229 l-25 -44 15 -79 c17 -88 20 -214 6 -199 -5 6 -12 24
-14 40 -3 17 -4 -28 -4 -100 1 -116 4 -135 25 -175 13 -25 33 -55 44 -67 15
-16 17 -25 10 -40 -15 -26 -62 -69 -97 -87 -30 -16 -30 -16 -5 -16 l25 -1 -25
-14 c-14 -7 -68 -16 -120 -19 -52 -4 -113 -9 -135 -11 -39 -5 -39 -5 -15 10
14 8 33 14 43 15 11 0 15 5 11 11 -10 17 -153 5 -192 -15 -33 -17 -44 -33 -16
-22 10 4 14 1 11 -6 -2 -7 2 -27 10 -45 15 -38 17 -67 3 -58 -6 3 -13 0 -16
-9 -3 -8 -12 -17 -20 -20 -12 -5 -14 -1 -8 17 6 21 6 21 -13 4 -22 -19 -48
-23 -37 -6 4 8 0 8 -15 0 -17 -10 -21 -9 -21 4 0 15 -2 14 -17 -1 -17 -17 -18
-17 -21 0 -4 17 -5 16 -24 -1 -16 -14 -22 -15 -25 -5 -4 10 -9 10 -23 -3 -21
-19 -50 -10 -50 16 0 10 -4 19 -10 19 -5 0 -10 -9 -10 -19 0 -26 -29 -35 -50
-16 -14 13 -19 13 -23 3 -3 -10 -9 -9 -25 5 -19 17 -20 18 -24 1 -3 -17 -4
-17 -20 0 -16 15 -18 16 -18 1 0 -13 -4 -14 -21 -4 -15 8 -19 8 -15 0 11 -17
-15 -13 -37 6 -19 17 -19 17 -13 -4 6 -18 4 -22 -8 -17 -8 3 -17 12 -20 20 -3
9 -10 12 -16 9 -14 -9 -12 20 3 58 8 18 12 38 10 45 -3 7 1 10 11 6 28 -11 17
5 -16 22 -39 20 -182 32 -192 15 -4 -6 0 -11 11 -11 10 -1 29 -7 43 -15 24
-15 24 -15 -15 -10 -22 2 -83 7 -135 11 -52 3 -106 12 -120 19 l-25 14 25 1
c25 0 25 0 -5 16 -35 18 -82 61 -96 87 -8 14 -3 26 19 55 49 62 58 96 59 232
0 69 -1 112 -4 95 -2 -16 -9 -34 -14 -39 -14 -15 -11 109 6 196 l14 77 -39 78
c-72 142 -80 222 -35 330 21 51 65 114 76 108 4 -3 10 -1 14 5 16 25 23 6 10
-29 -20 -58 -29 -146 -16 -168 8 -14 11 -14 11 -3 1 8 14 -13 30 -47 16 -35
31 -63 33 -63 2 0 -7 30 -19 68 -32 92 -29 241 4 274 29 29 143 21 236 -18 15
-5 17 -4 11 6 -6 10 0 11 26 6 48 -8 224 -20 286 -19 29 1 67 8 84 17 42 21
42 21 34 -16 l-6 -33 15 31 c10 22 26 36 53 45 21 7 42 12 47 11 5 -2 26 4 48
13 60 24 121 20 157 -11 17 -14 31 -33 32 -42 0 -10 3 -12 5 -5 9 22 -17 54
-59 74 l-42 19 43 0 c23 0 58 -6 77 -14z m-1170 -124 c-58 -87 -92 -335 -75
-545 6 -65 15 -126 20 -135 9 -14 10 -12 5 8 -4 18 -3 21 3 10 5 -8 7 -57 3
-110 l-7 -95 -13 90 c-15 109 -23 133 -16 48 4 -35 4 -63 2 -63 -2 0 -163 88
-358 196 -375 207 -418 231 -407 219 4 -4 179 -103 390 -220 l383 -213 8 -38
c4 -22 6 -64 5 -96 l-3 -56 -530 292 c-291 161 -531 299 -533 307 -1 8 18 34
42 58 l45 44 103 -58 c57 -32 106 -60 111 -62 4 -2 7 -2 7 0 0 3 -45 31 -100
62 -55 32 -103 61 -106 66 -8 14 2 11 40 -12 20 -12 36 -18 36 -15 0 3 -14 13
-31 21 -27 14 -29 18 -17 33 17 21 -56 -31 -99 -71 -39 -36 -44 -22 -8 21 65
77 240 182 306 182 27 0 106 -40 360 -185 181 -103 325 -192 327 -200 3 -15 1
-15 -27 -1 -38 20 -50 20 -25 0 18 -14 18 -15 -4 -4 -12 6 -20 15 -17 19 7 13
-193 124 -207 115 -6 -4 -8 -3 -5 4 4 6 -18 24 -50 42 -32 18 -78 44 -102 58
-25 14 -41 20 -37 13 7 -10 4 -11 -13 -2 -11 7 -21 14 -21 17 0 3 5 2 10 -1 6
-3 10 -4 10 -1 0 3 -14 13 -31 22 -17 8 -28 11 -25 5 13 -21 -5 -11 -31 17
-15 15 -23 21 -19 15 5 -9 2 -11 -8 -7 -9 3 -13 11 -9 18 3 6 3 8 -2 4 -4 -4
-25 2 -46 14 -21 12 -42 19 -46 15 -3 -4 -4 -9 -2 -11 2 -2 159 -95 349 -206
190 -111 350 -206 357 -212 7 -5 14 -24 16 -41 2 -18 1 6 -2 53 -11 149 -5
271 18 383 25 120 39 159 71 200 31 39 34 33 5 -11z m1436 -25 c-13 -13 -26
-3 -16 12 3 6 11 8 17 5 6 -4 6 -10 -1 -17z m189 -162 c24 -114 30 -234 19
-385 -3 -47 -4 -70 -2 -53 3 21 14 39 31 51 15 10 177 106 359 212 191 112
329 198 324 203 -5 5 -20 2 -35 -8 -14 -10 -26 -14 -26 -9 0 4 -6 0 -13 -11
-9 -11 -19 -15 -27 -10 -9 5 -11 4 -6 -3 7 -11 -6 -17 -27 -13 -5 1 -5 -4 -1
-10 5 -9 2 -10 -10 -6 -9 4 -15 3 -12 -2 3 -5 -1 -12 -10 -15 -9 -4 -13 -2 -8
5 4 8 0 7 -15 0 -11 -7 -21 -14 -21 -17 0 -3 5 -2 10 1 6 3 10 4 10 1 0 -3
-10 -10 -21 -17 -17 -9 -20 -8 -14 2 5 7 -18 -3 -51 -21 -62 -35 -97 -61 -54
-41 23 11 24 11 6 -3 -10 -9 -23 -13 -27 -10 -14 8 -70 -26 -63 -38 4 -7 3 -8
-4 -4 -15 9 -75 -22 -67 -34 4 -6 -1 -7 -11 -3 -11 4 -15 3 -10 -5 3 -6 1 -14
-5 -18 -8 -4 -9 -3 -5 4 11 18 0 15 -59 -19 -30 -17 -53 -35 -50 -39 3 -5 -5
-14 -17 -20 -22 -11 -22 -10 -4 4 25 20 13 20 -25 0 -28 -14 -30 -14 -27 1 2
9 145 96 328 200 252 144 332 185 360 185 65 0 240 -105 305 -182 36 -43 31
-57 -7 -21 -44 40 -117 92 -100 71 12 -15 10 -19 -17 -33 -17 -8 -31 -18 -31
-21 0 -3 16 3 36 15 19 12 37 21 40 21 18 0 -22 -27 -141 -95 -74 -42 -135
-79 -135 -82 0 -2 3 -2 8 0 4 2 69 39 144 82 l138 77 34 -28 c42 -35 63 -71
50 -84 -5 -5 -245 -139 -534 -299 l-525 -290 -3 57 c-1 31 1 74 5 96 l8 38
338 188 c186 103 341 191 345 195 11 12 -36 -13 -364 -195 -169 -93 -309 -170
-311 -170 -2 0 -2 28 2 63 7 85 -1 61 -16 -48 l-13 -90 -7 95 c-4 55 -3 101 2
110 6 10 8 6 4 -15 -5 -28 -5 -28 5 -6 6 13 15 76 20 140 14 175 -6 364 -55
516 -3 11 3 4 13 -15 11 -19 30 -84 42 -145z m-2150 -121 c0 -2 -9 0 -20 6
-11 6 -20 13 -20 16 0 2 9 0 20 -6 11 -6 20 -13 20 -16z m2640 21 c0 -2 -10
-9 -22 -15 -22 -11 -22 -10 -4 4 21 17 26 19 26 11z m-2570 -61 c0 -2 -9 0
-20 6 -11 6 -20 13 -20 16 0 2 9 0 20 -6 11 -6 20 -13 20 -16z m50 -30 c0 -2
-9 0 -20 6 -11 6 -20 13 -20 16 0 2 9 0 20 -6 11 -6 20 -13 20 -16z m70 -40
c0 -2 -9 0 -20 6 -11 6 -20 13 -20 16 0 2 9 0 20 -6 11 -6 20 -13 20 -16z
m2260 21 c0 -2 -10 -9 -22 -15 -22 -11 -22 -10 -4 4 21 17 26 19 26 11z
m-2190 -61 c0 -2 -13 2 -30 11 -16 9 -30 18 -30 21 0 2 14 -2 30 -11 17 -9 30
-18 30 -21z m50 -30 c0 -2 -9 0 -20 6 -11 6 -20 13 -20 16 0 2 9 0 20 -6 11
-6 20 -13 20 -16z m2020 21 c0 -2 -10 -9 -22 -15 -22 -11 -22 -10 -4 4 21 17
26 19 26 11z m-1915 -83 c-3 -3 -11 0 -18 7 -9 10 -8 11 6 5 10 -3 15 -9 12
-12z m1790 8 c-3 -5 -12 -10 -18 -10 -7 0 -6 4 3 10 19 12 23 12 15 0z m-1707
-375 c-6 -14 -13 -23 -15 -21 -5 5 15 46 22 46 3 0 -1 -11 -7 -25z m1622 -19
c0 -12 -5 -7 -19 24 -11 24 -11 24 3 6 9 -11 16 -24 16 -30z m-1614 -101 c-11
-8 -16 -15 -10 -15 5 0 -2 -9 -15 -19 -22 -17 -23 -19 -7 -49 9 -17 20 -33 25
-37 6 -3 8 -12 5 -19 -3 -7 14 -31 37 -54 l41 -42 132 -1 131 -2 -110 -9
c-142 -12 -175 -2 -227 67 -79 102 -86 146 -28 176 41 23 52 24 26 4z m1632
-13 c39 -25 26 -73 -46 -167 -52 -69 -85 -79 -227 -67 l-110 9 131 2 132 1 41
42 c23 23 40 47 37 54 -3 7 -1 16 5 19 5 4 16 20 25 37 16 30 15 32 -7 49 -13
10 -20 19 -15 19 6 0 1 7 -10 15 -19 15 -19 15 1 8 11 -3 30 -13 43 -21z
m-1692 -169 c-3 -10 1 -45 8 -78 10 -43 14 -52 15 -30 2 29 26 73 35 64 3 -3
7 -58 10 -124 3 -66 2 -104 -2 -85 -5 19 -14 44 -20 55 -11 18 -12 16 -8 -15
6 -39 -40 97 -50 147 -6 32 1 83 12 83 3 0 3 -8 0 -17z m1720 -57 c-3 -22 -17
-75 -30 -116 -14 -41 -23 -59 -20 -40 4 31 3 33 -8 15 -6 -11 -15 -36 -20 -55
-4 -19 -5 19 -2 85 3 66 8 122 10 124 9 9 33 -36 35 -64 1 -22 5 -13 15 30 7
33 11 69 8 80 -5 19 -4 19 7 1 7 -11 9 -35 5 -60z m-1608 -211 c-4 -80 -11
-125 -27 -165 -27 -71 -26 -78 5 -15 13 28 24 42 24 33 0 -26 -53 -164 -58
-149 -3 9 -7 9 -18 0 -11 -9 -14 -7 -14 13 0 25 34 138 52 171 5 11 10 70 10
133 0 101 2 113 15 102 13 -10 14 -32 11 -123z m48 66 c-4 -37 -3 -49 3 -36 9
20 10 20 10 -1 1 -34 27 -87 55 -113 23 -22 26 -33 28 -100 l2 -76 3 73 c4 73
4 73 31 70 27 -3 27 -3 32 -103 l5 -100 7 75 c5 41 7 84 5 95 -1 16 4 20 26
21 15 1 27 0 27 -2 0 -1 -6 -31 -14 -66 -11 -47 -13 -92 -8 -178 l8 -115 8 80
8 80 13 -50 c16 -59 13 -194 -5 -283 -7 -35 -11 -96 -8 -140 6 -90 -5 -68 -27
55 l-14 78 4 -98 c3 -53 12 -125 20 -158 9 -34 14 -63 12 -65 -5 -6 -43 80
-53 121 -4 16 -13 36 -21 43 -9 9 -13 43 -14 105 -1 84 -2 88 -11 47 -5 -25
-7 -81 -4 -125 4 -70 3 -78 -9 -61 -20 27 -28 95 -23 183 3 42 1 69 -3 61 -14
-21 -10 0 16 107 26 104 34 179 10 88 -8 -29 -26 -80 -40 -113 -14 -34 -32
-87 -40 -118 l-15 -57 3 88 c2 53 0 82 -5 75 -10 -14 -10 -14 12 71 6 23 9 46
6 49 -3 3 -6 -1 -6 -9 0 -8 -9 -32 -20 -54 -17 -35 -19 -36 -14 -11 3 16 7 86
9 155 l3 126 -13 -75 c-13 -76 -33 -137 -35 -110 -1 8 -12 -13 -24 -48 -13
-35 -27 -66 -31 -70 -3 -3 -5 35 -3 86 2 50 6 92 9 92 9 0 46 163 58 253 6 43
11 112 11 153 0 52 3 73 11 68 7 -4 9 -27 5 -63z m90 32 c-11 -11 -17 4 -9 23
7 18 8 18 11 1 2 -10 1 -21 -2 -24z m1224 5 c0 -5 -4 -8 -10 -8 -5 0 -10 10
-10 23 0 18 2 19 10 7 5 -8 10 -18 10 -22z m115 -282 c9 -50 23 -106 32 -125
15 -36 31 -232 18 -219 -4 4 -18 35 -31 70 -12 35 -23 56 -24 48 -2 -27 -22
34 -35 110 l-13 75 3 -126 c2 -69 6 -139 9 -155 5 -25 3 -24 -14 11 -11 22
-20 46 -20 54 0 8 -3 12 -6 9 -3 -3 0 -26 6 -49 22 -85 22 -85 12 -71 -5 7 -7
-22 -5 -75 l3 -88 -15 57 c-8 31 -26 84 -40 118 -14 33 -32 84 -40 113 -24 91
-16 16 10 -88 26 -106 30 -128 16 -107 -4 7 -6 -23 -3 -67 4 -74 -11 -181 -26
-181 -4 0 -6 35 -4 77 2 43 -1 96 -6 118 -9 36 -10 31 -11 -46 -1 -64 -5 -90
-16 -99 -8 -7 -15 -19 -15 -26 0 -21 -38 -126 -49 -137 -6 -6 -3 14 5 44 8 30
16 101 19 159 l4 105 -14 -78 c-21 -119 -33 -146 -27 -61 2 39 -1 102 -8 140
-18 99 -21 231 -5 289 l13 50 8 -80 8 -80 8 115 c5 86 3 131 -8 178 -8 35 -14
65 -14 66 0 2 12 3 28 2 25 -1 27 -4 27 -46 1 -25 3 -67 5 -95 3 -38 5 -26 9
49 4 67 10 101 19 104 7 2 12 -7 13 -25 l1 -28 11 30 c11 28 12 25 18 -45 l5
-75 2 77 c2 69 5 79 27 96 27 22 55 78 56 114 0 22 1 22 10 3 6 -14 7 -4 3 32
-3 29 -2 58 3 65 5 8 11 -34 14 -102 4 -63 14 -155 24 -204z m33 200 c0 -63 5
-122 10 -133 18 -33 52 -146 52 -171 0 -20 -3 -22 -14 -13 -11 9 -15 9 -18 0
-5 -15 -58 123 -58 149 0 9 11 -5 24 -33 31 -63 32 -56 5 15 -27 68 -39 260
-19 285 7 8 14 15 15 15 2 0 3 -51 3 -114z m-1240 21 c-2 -31 -8 -43 -22 -45
-16 -3 -17 1 -11 40 3 23 9 52 12 62 9 33 25 -8 21 -57z m139 26 c-3 -10 -5
-2 -5 17 0 19 2 27 5 18 2 -10 2 -26 0 -35z m670 0 c-3 -10 -5 -2 -5 17 0 19
2 27 5 18 2 -10 2 -26 0 -35z m168 -26 c6 -44 5 -48 -12 -45 -20 4 -29 52 -18
97 9 34 20 14 30 -52z m-1154 32 c-5 -13 -10 -19 -10 -12 -1 15 10 45 15 40 3
-2 0 -15 -5 -28z m105 -76 c-8 -19 -25 -7 -21 15 2 9 7 35 12 57 l8 40 3 -49
c2 -27 1 -55 -2 -63z m171 55 c-2 -13 -4 -5 -4 17 -1 22 1 32 4 23 2 -10 2
-28 0 -40z m750 0 c-2 -13 -4 -5 -4 17 -1 22 1 32 4 23 2 -10 2 -28 0 -40z
m184 -21 c2 -20 -1 -37 -6 -37 -6 0 -11 26 -12 57 -3 63 13 47 18 -20z m98 33
c0 -10 -3 -8 -9 5 -12 27 -12 43 0 25 5 -8 9 -22 9 -30z m-1270 -17 c0 -33 -1
-35 -9 -15 -8 20 -4 52 6 52 2 0 4 -17 3 -37z m501 27 c-12 -7 -8 -10 15 -10
l30 -1 -40 -19 c-23 -11 -29 -17 -15 -14 24 6 23 5 -10 -32 -19 -22 -23 -29
-9 -16 15 13 41 25 59 27 l33 4 -39 -35 -39 -35 39 25 c46 29 60 27 25 -4
l-24 -21 32 16 c18 8 41 15 53 15 12 0 35 -7 53 -15 l32 -16 -24 21 c-35 31
-21 33 25 4 l39 -25 -39 35 -39 35 33 -4 c18 -2 44 -14 59 -27 14 -12 10 -6
-8 15 -35 38 -35 45 0 27 10 -6 19 -8 19 -5 0 3 -19 15 -42 25 -42 19 -42 20
-13 20 24 0 27 2 15 11 -11 7 -6 8 20 5 19 -3 57 -8 84 -11 28 -4 103 -27 168
-51 142 -53 196 -57 234 -19 25 25 25 25 18 3 -3 -13 -15 -35 -25 -49 -16 -24
-24 -26 -73 -23 -44 2 -54 0 -50 -11 8 -20 -45 -4 -88 26 l-33 23 20 -23 20
-24 -33 17 c-33 17 -33 17 -22 -3 18 -34 -17 -26 -53 12 l-30 32 7 -27 c8 -33
5 -33 -36 -12 l-31 16 5 -26 c6 -31 -8 -34 -55 -9 -30 15 -31 15 -18 0 17 -22
2 -22 -46 -2 -19 8 -37 15 -39 15 -2 0 -1 -7 2 -15 7 -17 -11 -21 -21 -4 -5 6
-12 4 -21 -8 -14 -17 -14 -17 -28 0 -9 12 -16 14 -21 8 -10 -17 -28 -13 -21 4
3 8 4 15 2 15 -2 0 -20 -7 -39 -15 -48 -20 -63 -20 -46 2 13 15 12 15 -18 0
-47 -25 -61 -22 -55 9 l5 26 -31 -16 c-41 -21 -44 -21 -36 12 l7 27 -30 -32
c-36 -38 -71 -46 -53 -12 11 20 11 20 -22 3 l-33 -17 20 24 20 23 -33 -23
c-41 -29 -96 -46 -89 -27 4 9 -7 13 -41 14 -30 0 -41 -3 -31 -9 19 -12 5 -11
-23 2 -13 6 -32 28 -41 50 -22 51 -22 53 8 24 37 -38 92 -33 234 20 101 38
184 57 271 64 13 1 13 0 0 -9z m731 -42 c-9 -20 -10 -18 -10 17 0 31 2 36 9
23 6 -10 7 -25 1 -40z m-1426 -98 c-4 -23 -9 -39 -11 -37 -3 2 -2 23 2 46 4
23 9 40 11 37 3 -3 2 -23 -2 -46z m1623 -25 c0 -16 -2 -15 -8 5 -4 14 -8 36
-8 50 0 22 1 22 8 -5 4 -16 8 -39 8 -50z m-1184 -94 c-8 -10 -24 14 -24 37 l1
27 13 -30 c7 -16 12 -32 10 -34z m40 27 c19 -38 19 -38 2 -38 -15 0 -26 21
-26 51 0 27 6 24 24 -13z m55 -4 c14 -39 10 -50 -14 -41 -9 4 -15 19 -15 42 0
45 12 45 29 -1z m56 -6 c10 -21 12 -35 6 -41 -17 -17 -41 13 -41 50 0 39 12
36 35 -9z m198 35 c-7 -2 -19 -2 -25 0 -7 3 -2 5 12 5 14 0 19 -2 13 -5z m60
0 c-7 -2 -19 -2 -25 0 -7 3 -2 5 12 5 14 0 19 -2 13 -5z m193 -71 c-23 -24
-40 -3 -24 29 29 54 33 56 36 20 2 -21 -2 -40 -12 -49z m64 43 c0 -23 -6 -38
-15 -42 -24 -9 -28 2 -14 41 17 46 29 46 29 1z m45 -4 c-4 -17 -13 -31 -21
-31 -17 0 -17 0 2 39 19 38 29 34 19 -8z m41 -7 c-3 -8 -10 -14 -15 -14 -5 0
-4 13 2 31 8 21 13 26 15 14 2 -9 1 -23 -2 -31z m-478 11 c20 -43 15 -57 -15
-53 -20 2 -29 9 -31 26 -8 53 26 72 46 27z m227 -15 c0 -31 -3 -35 -27 -38
-31 -4 -36 10 -16 53 17 37 43 28 43 -15z m-301 14 c3 -9 6 -25 6 -36 0 -17
-3 -18 -15 -8 -16 13 -21 60 -6 60 5 0 12 -7 15 -16z m137 6 c19 -11 28 -70
10 -70 -28 0 -41 14 -41 46 0 37 2 39 31 24z m89 -24 c0 -32 -13 -46 -41 -46
-17 0 -10 59 9 69 27 16 32 13 32 -23z m130 10 c0 -13 -7 -29 -15 -36 -12 -10
-15 -9 -15 8 0 27 10 52 21 52 5 0 9 -11 9 -24z m-1040 -73 c-11 -17 -11 -17
-6 0 3 10 6 24 7 30 0 9 2 9 5 0 3 -7 0 -20 -6 -30z m470 28 c0 -6 -4 -13 -10
-16 -5 -3 -10 1 -10 9 0 9 5 16 10 16 6 0 10 -4 10 -9z m50 1 c0 -5 -9 -17
-20 -27 -22 -20 -26 -14 -10 16 11 19 30 26 30 11z m690 -11 c16 -30 12 -36
-10 -16 -21 19 -26 35 -10 35 5 0 14 -9 20 -19z m40 3 c0 -8 -4 -12 -10 -9 -5
3 -10 10 -10 16 0 5 5 9 10 9 6 0 10 -7 10 -16z m459 -29 c0 -5 -4 -3 -9 5 -5
8 -9 22 -9 30 0 16 17 -16 18 -35z m-1129 20 c0 -8 -9 -24 -20 -35 -17 -17
-21 -18 -26 -6 -7 19 13 56 31 56 8 0 15 -7 15 -15z m580 -6 c7 -11 9 -27 6
-35 -5 -12 -9 -11 -26 6 -11 11 -20 27 -20 35 0 22 28 18 40 -6z m-480 -48
c-22 -54 -44 -32 -28 28 9 31 11 33 25 18 14 -13 14 -20 3 -46z m90 29 c0 -9
-12 -30 -26 -45 -20 -21 -23 -30 -13 -36 8 -5 21 -2 32 8 16 15 19 15 34 0 16
-15 18 -15 35 0 17 15 19 15 36 0 17 -15 19 -15 35 0 15 15 18 15 34 0 11 -10
24 -13 32 -8 10 6 7 14 -13 34 -28 29 -34 62 -12 70 27 11 50 -17 43 -52 -4
-19 -3 -30 3 -26 5 3 18 0 29 -7 15 -9 23 -9 34 0 8 7 22 10 31 6 9 -3 22 -1
30 5 7 6 20 9 28 6 8 -3 20 1 27 9 6 7 21 12 31 9 11 -3 20 0 20 6 0 6 9 11
21 11 11 0 17 -5 14 -10 -4 -6 -10 -8 -15 -5 -4 3 -13 -2 -20 -10 -7 -8 -16
-12 -22 -9 -5 3 -15 0 -23 -6 -8 -7 -24 -10 -35 -7 -10 3 -25 -1 -31 -9 -9
-11 -15 -12 -26 -3 -7 7 -17 8 -21 4 -4 -4 -1 -10 6 -12 6 -3 9 -10 5 -16 -3
-7 -3 -9 2 -5 4 4 14 3 22 -3 10 -9 13 -8 13 5 0 22 26 31 44 17 11 -10 16 -8
21 9 5 17 9 19 21 9 12 -10 18 -8 29 7 8 10 15 15 15 10 0 -5 9 -1 20 9 20 18
20 17 20 -13 0 -25 -12 -57 -37 -101 -2 -2 -9 2 -17 8 -12 10 -15 8 -18 -10
-4 -30 -38 -35 -39 -6 -1 14 -5 9 -11 -15 -11 -42 -47 -61 -49 -25 -1 18 -2
19 -6 4 -3 -12 -11 -16 -23 -12 -10 3 -21 1 -25 -5 -3 -6 -10 -8 -14 -5 -5 2
-12 -10 -16 -28 -5 -22 -9 -26 -12 -14 -2 9 -8 17 -13 17 -5 0 -14 -8 -19 -17
-10 -17 -10 -16 -11 2 -1 20 -1 20 -15 1 -15 -19 -15 -19 -16 5 -1 20 -2 21
-6 4 -7 -28 -17 -32 -78 -34 l-53 -1 -10 38 -10 37 -1 -35 -1 -35 -19 29 -19
29 -4 -34 -4 -34 -17 35 c-15 33 -17 34 -23 13 -7 -26 -22 -30 -30 -9 -9 23
-33 28 -27 5 8 -29 -16 -23 -30 9 -9 20 -18 26 -34 24 -18 -3 -24 4 -32 30 -5
18 -10 26 -10 16 -1 -24 -35 -15 -39 11 -3 18 -6 20 -18 10 -8 -6 -15 -10 -17
-8 -25 44 -37 76 -37 101 0 30 0 31 20 13 11 -10 20 -14 20 -9 0 5 7 0 15 -10
11 -15 17 -17 29 -7 12 10 16 8 21 -9 5 -17 10 -19 21 -9 18 14 44 5 44 -17 0
-13 3 -14 13 -5 8 6 18 7 22 3 5 -4 5 -2 2 5 -4 6 -1 13 5 16 7 2 10 8 6 12
-4 4 -14 3 -21 -4 -11 -9 -17 -8 -26 3 -6 8 -21 12 -31 9 -11 -3 -27 0 -35 7
-8 6 -18 9 -23 6 -6 -3 -15 1 -22 9 -7 8 -16 13 -20 10 -5 -3 -11 -1 -15 5 -3
5 3 10 14 10 12 0 21 -5 21 -11 0 -6 9 -9 20 -6 10 3 25 -2 31 -9 7 -8 19 -12
27 -9 8 3 21 0 28 -6 8 -6 21 -9 29 -5 9 3 24 0 35 -6 14 -9 22 -9 34 1 8 7
20 10 25 6 7 -4 8 5 4 26 -5 24 -2 35 11 45 22 16 46 8 46 -16z m279 -8 c7
-22 6 -34 -4 -42 -19 -16 -42 44 -25 65 15 19 18 17 29 -23z m-419 12 c0 -23
-20 -55 -31 -49 -10 7 -12 48 -2 58 12 13 33 7 33 -9z m210 1 c0 -24 -23 -66
-34 -62 -13 4 -20 42 -12 63 7 18 46 18 46 -1z m65 -24 c0 -42 -17 -50 -33
-16 -19 40 -15 57 11 53 18 -2 22 -9 22 -37z m203 10 c6 -37 -15 -50 -28 -17
-14 38 -13 48 8 44 9 -2 19 -14 20 -27z m-668 15 c0 -3 -4 -8 -10 -11 -5 -3
-10 -1 -10 4 0 6 5 11 10 11 6 0 10 -2 10 -4z m840 -6 c0 -5 -2 -10 -4 -10 -3
0 -8 5 -11 10 -3 6 -1 10 4 10 6 0 11 -4 11 -10z m-1309 -65 c5 4 9 -5 9 -19
0 -21 -14 -31 -104 -76 -57 -28 -135 -61 -174 -74 l-71 -22 17 -25 c9 -14 24
-24 32 -23 8 0 9 -1 3 -3 -16 -5 -17 -19 -3 -28 21 -13 9 -35 -29 -54 -28 -15
-41 -17 -49 -9 -15 15 -43 -8 -35 -28 6 -16 39 -19 46 -4 3 6 4 5 3 -2 -2 -8
-19 -13 -42 -14 -21 -1 -53 -10 -70 -20 -26 -16 -30 -22 -20 -35 45 -60 123
-66 210 -14 32 20 60 34 62 32 3 -2 -24 -21 -58 -42 -99 -62 -172 -52 -232 29
-29 38 -29 124 0 163 23 30 143 105 156 97 4 -3 8 -1 8 4 0 6 64 46 143 90
196 110 181 103 185 86 2 -8 8 -12 13 -9z m2013 -108 c137 -79 238 -143 250
-160 29 -39 29 -125 0 -163 -61 -82 -132 -91 -232 -29 -34 21 -61 40 -58 42 2
2 30 -12 62 -32 80 -48 138 -49 190 -3 l36 32 -44 22 c-27 14 -53 20 -70 17
-20 -4 -29 0 -39 18 -15 30 -39 48 -61 49 -22 0 -23 10 -3 36 18 24 18 31 3
37 -7 2 -6 3 2 3 8 -1 23 9 32 23 l17 25 -67 21 c-37 12 -107 40 -157 63 -104
48 -92 35 24 -28 45 -24 79 -45 77 -48 -5 -5 -153 66 -203 97 -30 19 -49 51
-20 35 9 -5 9 -4 0 6 -6 7 -10 19 -7 26 2 8 6 21 9 29 2 8 10 15 17 14 7 0
116 -60 242 -132z m-2003 39 c-15 -17 -220 -121 -227 -114 -3 3 39 29 93 58
54 28 102 56 108 61 5 5 15 9 23 9 11 0 12 -3 3 -14z m33 -31 c-4 -8 -8 -15
-10 -15 -2 0 -4 7 -4 15 0 8 4 15 10 15 5 0 7 -7 4 -15z m1686 0 c0 -8 -2 -15
-4 -15 -2 0 -6 7 -10 15 -3 8 -1 15 4 15 6 0 10 -7 10 -15z m-1556 -29 c-3
-15 -8 -25 -11 -23 -2 3 -1 17 3 31 3 15 8 25 11 23 2 -3 1 -17 -3 -31z m1425
-16 c0 -9 -4 -8 -9 5 -5 11 -9 27 -9 35 0 9 4 8 9 -5 5 -11 9 -27 9 -35z
m-1094 -17 c5 -10 11 -52 15 -93 l7 -75 2 80 c3 94 17 76 27 -33 5 -53 2 -79
-14 -125 -11 -31 -24 -83 -28 -115 l-8 -57 -11 38 c-6 21 -13 35 -17 32 -10
-10 -20 103 -12 152 9 66 -3 50 -15 -18 -6 -40 -9 -46 -10 -21 0 18 5 65 13
105 8 40 17 89 21 110 6 40 18 48 30 20z m780 -20 c4 -21 13 -70 21 -110 8
-40 13 -87 13 -105 -1 -25 -4 -19 -10 21 -12 68 -24 84 -15 18 8 -49 -2 -162
-12 -152 -4 3 -11 -11 -17 -32 l-11 -38 -8 57 c-4 32 -17 84 -28 115 -16 46
-19 72 -14 125 10 109 24 127 27 33 l2 -80 7 75 c7 78 16 110 31 110 4 0 11
-17 14 -37z m-1450 -51 c-22 -19 -105 -62 -105 -54 0 4 24 20 53 34 56 29 66
33 52 20z m1822 -24 c-3 -7 -5 -2 -5 12 0 14 2 19 5 13 2 -7 2 -19 0 -25z
m373 -31 c0 -4 -21 4 -47 19 -71 40 -76 50 -10 18 31 -16 57 -32 57 -37z
m-1965 44 c-17 -15 -241 -154 -229 -142 15 17 218 149 229 150 6 1 6 -2 0 -8z
m1749 -66 c64 -42 116 -78 116 -81 0 -2 -26 12 -57 32 -32 21 -86 55 -120 77
-57 36 -71 47 -59 47 3 0 57 -34 120 -75z m-660 3 c3 -15 12 -33 19 -40 21
-21 57 -114 56 -145 0 -24 -2 -25 -8 -8 -6 16 -10 9 -15 -30 -4 -27 -14 -63
-21 -80 l-13 -30 -2 35 -2 35 -7 -30 c-6 -25 -8 -21 -14 32 -3 34 -16 94 -27
135 -21 77 -26 153 -11 163 6 3 12 -14 14 -37 3 -40 4 -40 6 12 2 56 12 52 25
-12z m-434 -18 c0 -26 -15 -90 -34 -145 l-33 -100 -7 41 c-6 31 -1 56 18 108
14 37 28 90 32 117 8 61 24 47 24 -21z m298 -40 c3 -75 0 -110 -7 -110 -6 0
-11 -11 -11 -24 0 -14 -4 -27 -9 -30 -5 -3 -14 -27 -21 -53 l-12 -48 -13 40
-12 40 -13 -63 c-7 -34 -16 -65 -20 -67 -11 -7 -24 90 -22 160 l1 60 -14 -60
c-8 -33 -14 -89 -15 -125 l0 -65 -20 25 c-11 14 -20 30 -20 37 0 6 -5 13 -11
15 -7 2 -11 39 -11 98 0 123 -16 69 -20 -68 -3 -104 -11 -104 -49 -3 -24 63
-21 160 5 209 8 15 22 49 31 75 20 57 31 52 44 -23 l9 -55 1 47 c1 54 20 76
22 26 2 -32 2 -32 8 7 l7 40 7 -45 c4 -25 8 -58 10 -75 2 -16 5 1 6 39 1 75 9
79 28 13 l11 -42 1 40 c2 65 18 77 26 19 10 -74 13 -75 14 -8 1 45 5 63 16 68
12 4 15 -3 16 -32 1 -20 3 -28 6 -17 2 11 6 30 9 43 10 50 19 16 22 -88z
m-388 60 c7 20 8 15 10 -25 l3 -50 8 40 c6 34 7 30 4 -20 -2 -34 -15 -86 -29
-120 -14 -33 -28 -79 -32 -102 -3 -24 -10 -43 -15 -43 -5 0 -10 19 -10 43 l-2
42 -6 -35 -7 -35 -12 53 c-7 29 -12 62 -12 73 0 25 39 119 58 138 7 7 16 27
20 45 l7 31 4 -30 c4 -30 4 -30 11 -5z m435 -25 c15 -11 56 -160 54 -197 -1
-15 -4 -9 -10 16 -13 57 -22 59 -14 4 8 -53 -13 -134 -26 -101 -5 11 -8 2 -8
-27 -1 -26 -5 -40 -10 -35 -8 9 -17 304 -11 370 3 28 3 28 7 5 3 -13 11 -29
18 -35z m-1435 -15 c0 -5 -7 -10 -16 -10 -8 0 -12 5 -9 10 3 6 10 10 16 10 5
0 9 -4 9 -10z m624 -125 c4 -20 3 -25 -3 -15 -5 8 -11 31 -15 50 -7 41 7 13
18 -35z m770 -130 c5 -42 4 -56 -3 -45 -10 13 -16 119 -7 109 2 -2 7 -31 10
-64z"/>
<path d="M2285 4029 c-4 -6 -5 -12 -2 -15 2 -3 7 2 10 11 7 17 1 20 -8 4z"/>
<path d="M2116 4063 c-6 -14 -5 -15 5 -6 7 7 10 15 7 18 -3 3 -9 -2 -12 -12z"/>
<path d="M1856 3688 c3 -5 10 -6 15 -3 13 9 11 12 -6 12 -8 0 -12 -4 -9 -9z"/>
<path d="M2882 3530 c0 -14 2 -19 5 -12 2 6 2 18 0 25 -3 6 -5 1 -5 -13z"/>
<path d="M2246 3378 c-10 -40 -7 -88 9 -118 22 -42 27 -37 8 7 -10 25 -13 53
-10 85 6 51 3 62 -7 26z"/>
<path d="M2747 3350 c4 -45 0 -64 -20 -102 -13 -26 -20 -45 -15 -42 4 3 17 23
28 44 21 40 25 100 10 135 -5 12 -6 -1 -3 -35z"/>
<path d="M2040 3223 c0 -5 10 -18 23 -29 l22 -19 -20 25 c-11 14 -21 27 -22
29 -2 2 -3 0 -3 -6z"/>
<path d="M2936 3202 l-19 -27 24 22 c12 12 21 24 18 27 -2 2 -13 -8 -23 -22z"/>
<path d="M3110 3130 c0 -5 -9 -34 -20 -63 l-20 -54 -50 5 c-27 2 -66 1 -87 -4
-37 -8 -37 -8 27 -15 36 -3 74 -10 86 -13 18 -7 24 -1 41 41 23 53 38 113 29
113 -3 0 -6 -4 -6 -10z"/>
<path d="M1886 3103 c4 -16 16 -50 27 -76 17 -42 23 -48 41 -41 12 3 50 10 86
13 64 7 64 7 27 15 -21 5 -60 6 -88 4 l-49 -5 -21 58 c-23 63 -34 77 -23 32z"/>
<path d="M2350 2993 c0 -13 29 -38 35 -31 3 3 -4 13 -15 23 -11 10 -20 13 -20
8z"/>
<path d="M2625 2980 c-10 -11 -13 -20 -8 -20 13 0 38 29 31 35 -3 3 -13 -4
-23 -15z"/>
<path d="M2020 2936 c-84 -23 -90 -34 -14 -29 52 4 83 0 128 -15 l59 -20 -44
39 c-48 41 -61 44 -129 25z"/>
<path d="M2851 2911 l-44 -39 59 20 c45 15 76 19 129 16 l70 -5 -40 18 c-22 9
-60 20 -85 23 -42 6 -48 3 -89 -33z"/>
<path d="M2587 2867 c-52 -43 -117 -45 -170 -4 -37 28 -53 34 -42 17 3 -5 -2
-10 -12 -11 -10 0 -3 -6 17 -14 23 -9 28 -14 15 -14 -11 0 -40 8 -64 19 -36
17 -42 17 -37 4 5 -12 1 -14 -17 -8 -23 8 -77 13 -77 8 0 -2 14 -11 31 -20 17
-8 28 -11 25 -5 -9 14 -10 15 59 -14 l60 -25 -42 0 c-45 0 -156 38 -147 51 7
12 -93 39 -145 39 -57 0 -113 -15 -141 -38 -20 -16 -25 -32 -56 -183 -8 -34
18 -94 50 -114 29 -19 168 -29 229 -15 23 5 37 4 37 -2 0 -13 73 30 85 51 5 9
10 23 12 31 3 24 36 90 44 90 13 0 -17 -106 -41 -146 -18 -30 -20 -36 -6 -25
21 17 48 69 76 145 12 30 27 60 35 66 13 11 13 8 1 -21 -8 -19 -16 -54 -20
-79 l-6 -45 20 55 c11 30 30 66 41 80 l20 25 -6 -25 -7 -25 18 25 c20 30 44
50 58 50 5 0 2 -6 -7 -12 -15 -11 -12 -13 23 -13 l40 0 -23 18 -22 18 28 -13
c15 -8 37 -27 48 -44 19 -28 20 -28 14 -4 l-6 25 20 -25 c11 -14 30 -50 41
-80 l20 -55 -6 45 c-4 25 -12 60 -20 79 -12 29 -12 32 1 21 8 -6 23 -36 35
-66 28 -76 55 -128 76 -145 14 -11 12 -5 -6 25 -24 40 -54 146 -41 146 8 0 41
-66 44 -90 2 -8 7 -22 12 -31 12 -21 85 -64 85 -51 0 6 14 7 38 2 60 -14 199
-4 228 15 32 20 58 80 50 114 -31 151 -36 167 -56 183 -28 23 -84 38 -141 38
-52 0 -152 -27 -145 -39 9 -13 -102 -51 -147 -51 l-42 0 60 25 c69 29 68 28
59 14 -3 -6 8 -3 25 5 17 9 31 18 31 20 0 7 -69 -3 -88 -13 -12 -6 -27 -11
-34 -10 -7 0 -3 4 10 9 12 5 22 14 22 19 0 6 -19 1 -42 -9 -24 -11 -52 -19
-63 -19 -13 0 -8 5 15 14 19 7 27 14 18 14 -11 1 -15 6 -12 16 8 20 5 19 -39
-18z"/>
<path d="M2421 2874 c6 -7 26 -18 45 -24 37 -13 93 -1 113 24 9 10 1 10 -34
-2 -40 -13 -50 -13 -90 0 -35 12 -43 12 -34 2z"/>
<path d="M2475 2673 c-29 -7 -45 -32 -45 -72 0 -20 -13 -57 -32 -90 -47 -84
-57 -221 -15 -221 5 0 2 9 -8 20 -15 17 -16 20 -3 15 9 -4 28 -24 42 -46 25
-37 54 -54 43 -25 -3 7 1 26 9 42 12 22 13 38 4 81 -10 46 -9 58 4 78 9 13 16
36 16 50 0 14 5 25 10 25 6 0 10 -11 10 -25 0 -14 7 -37 16 -50 13 -20 14 -32
4 -78 -9 -43 -8 -59 4 -81 8 -16 12 -35 9 -42 -10 -27 16 -14 38 19 12 17 31
40 41 50 31 30 24 103 -17 180 -20 38 -35 80 -35 100 0 18 -6 40 -12 49 -15
18 -53 27 -83 21z"/>
<path d="M1850 2565 c14 -17 70 -49 75 -43 2 2 -18 16 -43 31 -25 16 -40 21
-32 12z"/>
<path d="M3141 2566 c-7 -8 -31 -24 -54 -35 -23 -12 -36 -21 -29 -21 20 0 65
26 86 49 11 12 17 21 14 21 -3 0 -11 -6 -17 -14z"/>
<path d="M2180 2528 c-38 -21 -46 -28 -26 -23 28 6 86 41 86 51 0 2 -1 3 -2 3
-2 -1 -28 -15 -58 -31z"/>
<path d="M2785 2535 c17 -14 36 -25 44 -25 17 0 16 1 -34 28 l-40 22 30 -25z"/>
<path d="M1860 2511 c8 -15 67 -37 76 -28 2 1 -17 12 -42 24 -40 20 -43 20
-34 4z"/>
<path d="M3100 2504 c-28 -16 -36 -23 -20 -20 14 3 30 6 37 6 7 0 17 9 23 20
6 11 9 20 8 19 -2 0 -23 -12 -48 -25z"/>
<path d="M2123 2465 c47 -16 42 -11 66 -68 11 -26 22 -47 25 -47 7 0 -1 78
-10 91 -9 15 -69 39 -96 39 -17 -1 -13 -5 15 -15z"/>
<path d="M2834 2466 c-18 -8 -35 -19 -38 -25 -9 -13 -17 -91 -10 -91 3 0 14
21 25 47 24 57 19 52 66 68 31 12 33 14 13 14 -14 0 -39 -6 -56 -13z"/>
<path d="M2287 2426 c-3 -22 -4 -42 -3 -44 3 -3 46 65 46 72 0 2 -8 6 -19 9
-15 4 -20 -2 -24 -37z"/>
<path d="M2688 2462 c-23 -5 -23 -6 7 -50 l26 -37 -7 45 c-8 52 -5 47 -26 42z"/>
<path d="M2490 2395 c0 -25 5 -45 10 -45 6 0 10 20 10 45 0 25 -4 45 -10 45
-5 0 -10 -20 -10 -45z"/>
<path d="M2625 2310 c-10 -11 -13 -20 -8 -20 13 0 38 29 31 35 -3 3 -13 -4
-23 -15z"/>
<path d="M2317 2307 c-3 -9 -1 -34 6 -55 10 -30 17 -38 42 -40 l30 -4 -28 30
c-15 16 -31 42 -36 58 -6 23 -9 25 -14 11z"/>
<path d="M2670 2303 c0 -12 -14 -39 -32 -58 l-32 -37 30 4 c24 2 31 10 42 41
8 26 9 44 2 55 -8 15 -9 14 -10 -5z"/>
<path d="M790 3195 c0 -2 18 -14 40 -25 22 -11 40 -18 40 -15 0 2 -18 14 -40
25 -22 11 -40 18 -40 15z"/>
<path d="M920 3096 c0 -3 14 -12 30 -21 17 -9 30 -13 30 -11 0 3 -13 12 -30
21 -16 9 -30 13 -30 11z"/>
<path d="M4158 3174 c-38 -20 -36 -28 2 -9 17 9 30 18 30 20 0 7 -1 6 -32 -11z"/>
<path d="M4078 3129 c-21 -11 -38 -22 -38 -24 0 -3 18 4 40 15 22 11 40 23 40
25 0 7 0 7 -42 -16z"/>
<path d="M1671 2144 c0 -11 3 -14 6 -6 3 7 2 16 -1 19 -3 4 -6 -2 -5 -13z"/>
<path d="M3321 2144 c0 -11 3 -14 6 -6 3 7 2 16 -1 19 -3 4 -6 -2 -5 -13z"/>
<path d="M1892 1740 c0 -19 2 -27 5 -17 2 9 2 25 0 35 -3 9 -5 1 -5 -18z"/>
<path d="M1871 1624 c0 -11 3 -14 6 -6 3 7 2 16 -1 19 -3 4 -6 -2 -5 -13z"/>
<path d="M1861 1584 c0 -11 3 -14 6 -6 3 7 2 16 -1 19 -3 4 -6 -2 -5 -13z"/>
<path d="M3102 1740 c0 -19 2 -27 5 -17 2 9 2 25 0 35 -3 9 -5 1 -5 -18z"/>
<path d="M3121 1624 c0 -11 3 -14 6 -6 3 7 2 16 -1 19 -3 4 -6 -2 -5 -13z"/>
<path d="M3131 1584 c0 -11 3 -14 6 -6 3 7 2 16 -1 19 -3 4 -6 -2 -5 -13z"/>
<path d="M2334 1699 c-3 -6 -15 -8 -26 -6 -15 4 -18 2 -12 -16 9 -31 14 -34
24 -17 14 23 44 18 57 -10 l11 -25 11 27 c7 20 15 26 28 22 15 -5 16 -4 3 5
-10 7 -11 11 -3 11 16 0 33 -32 34 -67 1 -29 3 -26 13 19 8 36 44 35 52 -2 10
-42 12 -46 13 -17 1 35 18 67 34 67 8 0 7 -4 -3 -11 -13 -9 -12 -10 3 -5 13 4
21 -2 28 -22 l11 -27 11 25 c13 28 43 33 57 10 10 -17 15 -14 24 17 6 18 4 22
-8 17 -9 -4 -23 -1 -31 6 -13 10 -19 9 -35 -5 -18 -16 -21 -16 -44 -2 -21 14
-26 15 -37 1 -10 -13 -14 -13 -30 2 -18 16 -20 16 -38 0 -16 -15 -20 -15 -30
-2 -11 14 -16 13 -37 -1 -22 -14 -26 -14 -43 1 -21 19 -27 20 -37 5z m26 -9
c0 -5 -5 -10 -11 -10 -5 0 -7 5 -4 10 3 6 8 10 11 10 2 0 4 -4 4 -10z m295 0
c3 -5 1 -10 -4 -10 -6 0 -11 5 -11 10 0 6 2 10 4 10 3 0 8 -4 11 -10z"/>
<path d="M3747 1383 c-15 -15 -7 -43 13 -43 11 0 20 5 20 10 0 6 -7 10 -15 10
-8 0 -15 5 -15 11 0 6 7 8 16 5 8 -3 12 -2 9 4 -7 12 -19 13 -28 3z"/>
<path d="M2251 1314 c0 -11 3 -14 6 -6 3 7 2 16 -1 19 -3 4 -6 -2 -5 -13z"/>
</g>
</svg>
