<?xml version="1.0" standalone="no"?>
<!DOCTYPE svg PUBLIC "-//W3C//DTD SVG 20010904//EN"
 "http://www.w3.org/TR/2001/REC-SVG-20010904/DTD/svg10.dtd">
<svg version="1.0" xmlns="http://www.w3.org/2000/svg"
 width="500.000000pt" height="500.000000pt" viewBox="0 0 500.000000 500.000000"
 preserveAspectRatio="xMidYMid meet">

<g transform="translate(0.000000,500.000000) scale(0.100000,-0.100000)"
fill="#000000" stroke="none">
<path d="M2405 4230 c-33 -5 -94 -14 -135 -20 -41 -6 -127 -27 -190 -47 -99
-32 -121 -42 -159 -80 -24 -24 -48 -43 -54 -43 -19 0 -156 -149 -162 -177 -4
-15 -12 -38 -18 -51 -8 -17 -7 -35 7 -78 l17 -55 -30 -35 c-17 -19 -32 -40
-32 -47 -1 -7 -3 -19 -4 -27 0 -8 -5 -33 -9 -55 -30 -155 -56 -309 -61 -356
l-6 -57 -297 169 c-328 187 -334 189 -428 148 -106 -47 -252 -156 -279 -209
-19 -37 -19 -99 1 -125 8 -11 243 -146 522 -301 353 -195 506 -285 503 -295
-2 -8 -3 -25 -3 -39 1 -78 1 -151 0 -200 -1 -37 8 -80 26 -130 32 -89 31 -161
-4 -229 -12 -24 -19 -50 -16 -58 3 -8 1 -23 -4 -33 -6 -11 -112 -77 -236 -147
-124 -70 -237 -139 -251 -153 -39 -39 -57 -81 -57 -135 0 -63 27 -119 77 -159
36 -29 45 -31 115 -31 l77 0 165 106 c91 58 170 109 177 113 8 4 18 -6 29 -26
9 -18 31 -45 47 -61 17 -16 44 -62 63 -108 27 -68 34 -78 42 -62 9 15 15 9 41
-47 17 -36 31 -70 31 -77 0 -6 5 -13 10 -15 6 -2 13 -21 16 -43 3 -22 7 -51
10 -64 l5 -24 23 22 c12 11 25 21 29 21 4 0 17 -21 30 -46 l24 -46 38 46 c20
25 41 46 44 46 4 0 20 -27 36 -60 16 -33 32 -60 36 -60 4 0 15 10 23 21 15 22
15 21 32 -20 l17 -42 24 23 c20 19 25 20 33 8 5 -8 10 -10 10 -4 0 5 6 19 14
29 13 18 15 17 31 -20 l17 -40 16 33 c17 34 32 42 32 16 0 -14 2 -14 16 -3 14
12 19 10 38 -14 25 -32 36 -34 36 -9 0 29 12 34 33 15 19 -17 19 -17 12 6 -4
13 -3 22 1 19 103 -49 124 -53 124 -22 0 11 7 13 26 8 24 -6 26 -5 19 16 -8
24 2 22 36 -7 15 -12 18 -9 28 31 6 24 16 57 21 72 l11 28 19 -31 c17 -29 79
-83 93 -83 4 0 7 20 7 45 0 52 18 60 57 24 25 -24 27 -22 37 45 6 48 13 54 29
32 12 -16 15 -6 25 74 6 51 14 95 17 98 3 3 16 -5 29 -17 l24 -23 18 83 c11
54 24 88 37 98 36 29 62 62 72 92 l10 29 175 -112 175 -113 77 0 c70 0 79 2
115 31 55 45 76 86 77 153 1 72 -29 126 -92 168 -26 17 -136 81 -244 143 -192
108 -224 132 -212 163 3 8 -4 34 -16 58 -35 68 -37 140 -4 229 18 50 27 94 26
130 -1 49 -1 126 0 200 0 14 -1 31 -3 39 -3 10 154 102 503 295 279 155 514
290 522 301 20 26 20 88 1 125 -27 53 -173 162 -279 209 -95 41 -101 39 -429
-148 l-296 -169 -6 67 c-9 85 -51 296 -65 321 -14 25 -13 90 1 90 17 0 2 153
-21 213 -10 26 -30 64 -45 83 -14 19 -24 38 -21 43 10 16 -112 121 -175 151
-34 16 -65 33 -68 38 -7 11 -184 66 -268 83 -35 7 -63 16 -63 20 0 3 -33 9
-72 12 -40 4 -93 9 -118 11 -25 3 -72 1 -105 -4z m59 -88 c-64 -47 -124 -119
-157 -190 -29 -62 -32 -75 -32 -174 0 -59 -4 -103 -8 -99 -10 10 -37 109 -37
136 0 17 2 17 10 5 7 -11 10 -2 10 31 0 25 7 69 15 97 9 29 13 57 10 63 -8 12
35 86 68 117 29 27 67 40 121 41 l39 1 -39 -28z m-167 -9 c-2 -10 -17 -47 -35
-83 -41 -83 -56 -166 -47 -250 16 -140 13 -152 -25 -82 -10 20 -19 33 -19 27
-1 -5 11 -30 24 -54 33 -57 27 -63 -8 -8 -65 99 -86 261 -46 343 20 43 89 114
111 114 7 0 6 -6 -4 -17 -33 -39 -28 -46 8 -10 44 43 45 43 41 20z m237 -29
c-32 -19 -75 -51 -94 -71 -31 -32 -29 -31 20 8 51 41 118 76 180 94 32 9 24 2
-73 -69 -107 -78 -177 -175 -232 -320 -22 -59 -23 -60 -31 -32 -12 49 13 175
49 249 39 78 23 69 -23 -13 -37 -65 -29 -27 8 44 26 48 108 130 122 121 4 -2
27 2 51 9 76 24 85 17 23 -20z m240 18 c5 -8 -40 -52 -49 -46 -3 2 -3 1 0 -2
2 -4 -24 -37 -58 -73 -34 -37 -84 -102 -110 -146 -49 -83 -62 -94 -26 -22 12
23 16 38 11 32 -6 -5 -29 -46 -52 -90 -23 -44 -38 -69 -35 -55 10 37 91 206
115 240 12 17 19 30 16 30 -11 0 -103 -129 -139 -195 -21 -38 -35 -59 -31 -45
8 31 58 131 90 182 13 21 22 38 20 38 -12 0 -112 -140 -138 -193 -19 -39 -28
-51 -24 -32 12 56 94 210 136 253 45 46 106 90 136 97 10 3 42 11 69 19 61 18
63 18 69 8z m-641 -65 c-39 -76 -34 -237 11 -348 15 -38 19 -56 10 -48 -11 9
-14 8 -14 -2 -1 -29 -60 52 -74 102 -17 57 -22 174 -7 183 4 3 11 23 15 43 7
47 39 100 59 100 14 0 14 -3 0 -30z m-91 -115 c-4 -128 -2 -144 21 -210 14
-40 23 -72 21 -72 -2 0 -15 21 -28 48 -29 54 -32 52 -11 -8 18 -52 19 -55 1
-41 -18 15 -55 101 -73 166 l-13 50 6 -55 c3 -30 14 -75 25 -99 10 -24 17 -46
14 -49 -2 -2 1 -14 7 -26 8 -16 3 -14 -22 9 -41 38 -80 119 -80 168 0 45 29
181 37 173 4 -3 17 9 31 27 14 17 22 25 20 17 -17 -49 -19 -65 -8 -50 6 8 20
32 31 53 10 20 21 37 22 37 2 0 2 -62 -1 -138z m906 120 c8 -5 -23 -15 -79
-26 -50 -10 -93 -15 -96 -12 -3 3 6 8 21 12 14 3 24 10 21 14 -3 5 1 11 7 13
21 9 112 7 126 -1z m67 -42 c15 -6 6 -9 -32 -9 -28 -1 -54 -5 -58 -10 -3 -5
-20 -13 -38 -17 -35 -7 -137 -50 -137 -57 0 -3 28 7 62 20 43 18 85 26 142 29
64 2 71 1 36 -5 -93 -17 -223 -83 -318 -164 -27 -23 -24 -17 13 22 l50 53 -55
-41 c-30 -22 -76 -68 -102 -102 -57 -73 -62 -70 -13 7 20 31 31 53 24 49 -22
-14 13 38 60 88 29 32 71 62 116 84 72 35 55 36 -24 2 -57 -25 -66 -17 -12 11
85 43 231 63 286 40z m-1127 -126 c1 -71 23 -163 49 -204 14 -23 14 -24 0 -10
-9 8 -30 40 -47 70 -29 51 -31 52 -24 20 3 -19 15 -53 26 -75 13 -27 14 -34 3
-21 -15 20 -50 33 -39 15 3 -5 10 -6 16 -3 7 5 8 2 3 -6 -6 -10 -16 -5 -38 20
l-30 34 6 -30 7 -29 -16 29 c-11 20 -18 25 -24 16 -5 -8 -11 -1 -19 21 -14 41
-14 71 1 104 14 32 28 32 28 1 0 -13 7 -26 15 -30 11 -4 15 1 15 17 0 18 2 19
10 7 7 -11 10 -3 11 30 l2 45 7 -50 7 -50 1 47 c2 42 16 98 25 98 2 0 5 -30 5
-66z m1268 11 c46 -19 102 -72 113 -108 21 -70 22 -131 2 -187 l-20 -55 0 66
c-1 76 -22 155 -52 193 -24 30 -82 62 -136 75 -33 8 -34 9 -11 10 15 1 51 -8
80 -19 61 -23 52 -10 -17 25 -38 19 -43 23 -20 19 17 -4 44 -12 61 -19z m-148
-2 c-10 -2 -28 -2 -40 0 -13 2 -5 4 17 4 22 1 32 -1 23 -4z m77 -36 c78 -23
158 -137 143 -203 -3 -12 -8 -5 -13 21 -14 70 -54 135 -83 135 -13 0 -13 -3 1
-18 27 -30 19 -38 -10 -11 l-27 24 27 -33 c23 -29 27 -43 27 -100 0 -94 -17
-112 -22 -24 -4 77 -14 95 -70 125 l-33 18 28 -21 c42 -33 57 -71 56 -142 -1
-83 -13 -118 -22 -63 -4 22 -7 54 -7 71 0 32 -39 118 -53 115 -4 -1 -23 6 -43
14 -69 28 -186 14 -284 -34 l-45 -23 30 26 c17 14 43 30 58 37 21 9 25 14 15
21 -8 6 0 7 22 3 24 -4 31 -3 21 3 -11 8 -10 11 5 15 10 3 1 3 -21 1 -29 -4
-36 -2 -25 5 20 13 142 41 183 42 31 1 31 1 7 10 -37 13 86 0 135 -14z m95
-151 c6 -24 10 -52 8 -62 -3 -11 -9 2 -15 31 -7 28 -15 59 -19 69 -5 12 -4 17
3 13 6 -4 16 -26 23 -51z m-192 15 c53 -27 76 -72 77 -148 0 -34 -5 -67 -11
-73 -9 -9 -10 -1 -3 32 17 92 -35 178 -117 194 -51 9 -126 -1 -173 -26 -23
-11 -41 -18 -41 -15 0 3 24 17 53 30 67 32 160 34 215 6z m-30 -21 c46 -28 39
-32 -15 -8 -58 25 -62 28 -37 28 10 0 34 -9 52 -20z m-7 -25 c48 -25 69 -62
68 -119 l-1 -51 -8 51 c-8 57 -17 77 -30 69 -5 -3 -12 0 -16 6 -12 20 -88 49
-134 49 -35 1 -41 3 -25 10 26 12 110 3 146 -15z m-51 -43 c45 -22 73 -75 64
-122 -9 -55 -35 -90 -89 -122 -40 -24 -44 -28 -20 -23 16 3 56 8 88 11 66 5
132 28 122 44 -3 5 0 7 8 4 8 -3 18 0 23 7 4 8 3 10 -4 5 -20 -12 -13 0 10 20
19 16 20 16 9 1 -12 -15 -11 -17 7 -14 12 2 30 11 42 22 20 18 20 18 20 -41 0
-35 -10 -87 -23 -126 -27 -79 -18 -81 14 -3 14 34 26 51 30 43 15 -24 21 42
10 105 -15 88 -14 97 10 60 12 -18 25 -33 30 -33 5 0 9 -10 9 -21 0 -17 3 -19
14 -10 12 10 17 3 29 -36 34 -109 26 -167 -43 -308 l-39 -80 14 -75 c17 -85
20 -209 6 -195 -5 6 -12 24 -14 40 -3 17 -5 -26 -4 -95 0 -111 3 -131 24 -175
14 -27 34 -60 45 -72 15 -16 17 -25 10 -40 -15 -26 -62 -69 -97 -87 -30 -16
-30 -16 -5 -16 l25 -1 -25 -14 c-14 -7 -68 -16 -120 -19 -52 -4 -113 -9 -135
-11 -39 -5 -39 -5 -15 10 14 8 33 14 43 15 11 0 15 5 11 11 -10 17 -153 5
-192 -15 -33 -17 -44 -33 -16 -22 10 4 14 1 11 -6 -2 -7 2 -27 10 -45 15 -38
17 -67 3 -58 -6 3 -13 0 -16 -9 -3 -8 -12 -17 -20 -20 -12 -5 -14 -1 -8 17 6
21 6 21 -13 4 -22 -19 -48 -23 -37 -6 4 8 0 8 -15 0 -17 -10 -21 -9 -21 4 0
15 -2 14 -17 -1 -17 -17 -18 -17 -21 0 -4 17 -5 16 -24 -1 -16 -14 -22 -15
-25 -5 -4 10 -9 10 -23 -3 -21 -19 -50 -10 -50 16 0 10 -4 19 -10 19 -5 0 -10
-9 -10 -19 0 -26 -29 -35 -50 -16 -14 13 -19 13 -23 3 -3 -10 -9 -9 -25 5 -19
17 -20 18 -24 1 -3 -17 -4 -17 -20 0 -16 15 -18 16 -18 1 0 -13 -4 -14 -21 -4
-15 8 -19 8 -15 0 11 -17 -15 -13 -36 6 -20 18 -25 4 -6 -15 9 -9 9 -12 0 -12
-7 0 -20 9 -29 19 -9 11 -20 18 -25 15 -12 -8 -10 23 5 59 8 18 12 38 10 45
-3 7 1 10 11 6 28 -11 17 5 -16 22 -39 20 -182 32 -192 15 -4 -6 0 -11 11 -11
10 -1 29 -7 43 -15 24 -15 24 -15 -15 -10 -22 2 -83 7 -135 11 -52 3 -106 12
-120 19 l-25 14 25 1 25 1 -25 10 c-28 11 -86 64 -101 92 -8 14 -3 26 19 55
49 62 58 96 59 232 0 69 -1 112 -4 95 -2 -16 -9 -34 -14 -39 -14 -15 -11 109
6 194 l14 75 -39 80 c-72 146 -80 224 -35 332 21 51 65 114 76 108 4 -3 10 -1
14 5 16 25 23 6 10 -29 -20 -58 -29 -146 -16 -168 8 -14 11 -14 11 -3 1 8 14
-13 30 -47 16 -35 31 -63 33 -63 2 0 -7 30 -19 68 -25 71 -30 158 -15 226 12
48 19 55 65 66 34 7 128 -10 190 -36 15 -5 17 -4 11 6 -6 10 0 11 26 6 48 -8
224 -20 286 -19 29 1 67 8 84 17 42 21 42 21 34 -16 l-6 -33 15 31 c10 22 26
36 53 45 21 7 42 12 47 11 5 -2 26 4 48 13 60 24 121 20 157 -11 17 -14 31
-33 32 -42 0 -10 3 -12 5 -5 9 22 -17 54 -59 74 l-42 19 45 0 c25 0 61 -8 80
-18z m-1175 -120 c-57 -87 -92 -336 -75 -542 5 -63 10 -119 10 -125 0 -5 4 -4
9 4 15 24 20 -18 12 -114 l-7 -90 -13 90 c-15 109 -23 133 -16 48 4 -35 4 -63
2 -63 -2 0 -141 76 -308 168 -347 193 -357 198 -346 186 4 -4 155 -90 335
-190 l327 -182 8 -38 c4 -22 6 -65 5 -96 l-3 -57 -530 293 -530 293 -2 41 c-1
39 3 46 55 93 68 60 174 126 234 144 37 11 49 11 77 -1 79 -33 651 -368 651
-381 0 -11 -4 -11 -22 -2 -18 9 -400 226 -452 257 -5 3 -6 -1 -1 -7 6 -10 3
-11 -14 -2 -11 7 -21 14 -21 17 0 3 5 2 10 -1 6 -3 10 -4 10 -1 0 3 -10 10
-21 17 -15 7 -19 8 -15 0 5 -7 1 -9 -8 -5 -9 3 -13 10 -10 15 3 5 -3 6 -12 2
-12 -4 -15 -3 -10 6 4 6 4 10 -1 9 -17 -4 -53 14 -47 24 4 6 3 8 -3 5 -5 -3
-24 3 -43 14 -18 11 -36 17 -41 12 -5 -5 141 -96 324 -202 182 -107 344 -203
359 -213 17 -12 28 -30 31 -51 2 -17 1 6 -2 53 -11 149 -5 271 18 383 25 120
39 159 71 200 31 39 34 33 5 -11z m1436 -25 c-13 -13 -26 -3 -16 12 3 6 11 8
17 5 6 -4 6 -10 -1 -17z m190 -164 c23 -112 28 -232 18 -383 -3 -47 -4 -70 -2
-53 3 21 14 39 31 51 15 10 177 106 359 213 183 106 329 197 324 202 -5 5 -23
-1 -41 -12 -19 -11 -38 -17 -43 -14 -6 3 -7 1 -3 -5 6 -10 -30 -28 -47 -24 -5
1 -5 -3 -1 -9 5 -9 2 -10 -10 -6 -9 4 -15 3 -12 -2 3 -5 -1 -12 -10 -15 -10
-4 -13 -2 -8 7 4 6 -4 0 -19 -15 -26 -28 -44 -38 -31 -17 3 6 -8 3 -25 -5 -17
-9 -31 -19 -31 -22 0 -2 9 0 20 6 11 6 20 8 20 6 0 -3 -14 -13 -31 -22 -20
-10 -28 -11 -24 -3 5 6 -21 -5 -56 -25 -35 -20 -63 -41 -61 -47 1 -6 -2 -8 -8
-4 -13 8 -212 -104 -205 -116 3 -4 -5 -13 -17 -19 -22 -11 -22 -10 -4 4 25 20
14 20 -24 1 -25 -13 -30 -13 -30 -2 0 13 573 348 651 381 28 12 40 12 77 1 93
-28 292 -173 292 -213 0 -12 -8 -8 -32 15 -44 40 -117 92 -100 71 12 -15 10
-19 -17 -33 -17 -8 -31 -18 -31 -21 0 -3 16 3 36 15 38 23 48 26 40 12 -3 -5
-51 -34 -106 -66 -55 -31 -100 -59 -100 -62 0 -2 3 -2 8 0 4 2 53 30 109 62
l103 57 34 -28 c42 -35 63 -71 50 -84 -5 -5 -245 -139 -534 -299 l-525 -290
-3 57 c-1 31 1 74 5 96 l8 38 338 188 c186 103 341 191 345 195 11 12 -31 -11
-362 -194 -170 -94 -311 -171 -313 -171 -2 0 -2 28 2 63 7 85 -1 61 -16 -48
l-13 -90 -7 90 c-8 96 -3 138 12 114 5 -8 9 -9 9 -4 0 6 5 62 10 125 11 138
-1 313 -29 420 -33 122 -33 127 -12 83 11 -23 30 -91 42 -150z m-2151 -119 c0
-2 -9 0 -20 6 -11 6 -20 13 -20 16 0 2 9 0 20 -6 11 -6 20 -13 20 -16z m70
-40 c0 -2 -9 0 -20 6 -11 6 -20 13 -20 16 0 2 9 0 20 -6 11 -6 20 -13 20 -16z
m2500 21 c0 -2 -10 -9 -22 -15 -22 -11 -22 -10 -4 4 21 17 26 19 26 11z
m-2430 -61 c0 -2 -13 2 -30 11 -16 9 -30 18 -30 21 0 2 14 -2 30 -11 17 -9 30
-18 30 -21z m2380 31 c0 -2 -10 -9 -22 -15 -22 -11 -22 -10 -4 4 21 17 26 19
26 11z m-2330 -61 c0 -2 -9 0 -20 6 -11 6 -20 13 -20 16 0 2 9 0 20 -6 11 -6
20 -13 20 -16z m2260 21 c0 -2 -10 -9 -22 -15 -22 -11 -22 -10 -4 4 21 17 26
19 26 11z m-2190 -61 c0 -2 -13 2 -30 11 -16 9 -30 18 -30 21 0 2 14 -2 30
-11 17 -9 30 -18 30 -21z m2140 31 c0 -2 -13 -11 -30 -20 -38 -19 -40 -11 -2
9 31 17 32 18 32 11z m-2090 -61 c0 -2 -9 0 -20 6 -11 6 -20 13 -20 16 0 2 9
0 20 -6 11 -6 20 -13 20 -16z m2020 21 c0 -2 -10 -9 -22 -15 -22 -11 -22 -10
-4 4 21 17 26 19 26 11z m-1950 -61 c0 -2 -13 2 -30 11 -16 9 -30 18 -30 21 0
2 14 -2 30 -11 17 -9 30 -18 30 -21z m35 -22 c-3 -3 -11 0 -18 7 -9 10 -8 11
6 5 10 -3 15 -9 12 -12z m1790 8 c-3 -5 -12 -10 -18 -10 -7 0 -6 4 3 10 19 12
23 12 15 0z m-1702 -370 c-5 -19 -23 -39 -23 -25 0 9 20 45 24 45 2 0 2 -9 -1
-20z m1617 -23 c0 -16 -18 3 -23 25 -6 22 -5 22 8 4 8 -11 15 -24 15 -29z
m-1614 -102 c-11 -8 -16 -15 -10 -15 5 0 -2 -9 -15 -19 -22 -17 -23 -19 -7
-49 9 -17 20 -33 25 -37 6 -3 8 -12 5 -19 -3 -7 14 -31 37 -54 l41 -42 132 -1
131 -2 -95 -9 c-167 -15 -196 -4 -269 104 -52 78 -53 112 -1 139 41 23 52 24
26 4z m1632 -13 c33 -22 28 -60 -20 -131 -71 -107 -101 -118 -268 -103 l-95 9
131 2 132 1 41 42 c23 23 40 47 37 54 -3 7 -1 16 5 19 5 4 16 20 25 37 16 30
15 32 -7 49 -13 10 -20 19 -15 19 6 0 1 7 -10 15 -19 15 -19 15 1 8 11 -3 30
-13 43 -21z m-1691 -171 c-2 -10 1 -45 8 -78 9 -42 13 -50 14 -28 2 29 26 73
35 64 3 -3 7 -58 10 -124 3 -66 2 -104 -2 -85 -5 19 -14 44 -20 55 -11 17 -12
15 -7 -20 3 -22 -8 5 -25 60 -30 103 -35 132 -24 159 9 22 17 20 11 -3z m1723
-31 c-1 -14 -14 -70 -30 -125 -17 -55 -28 -82 -25 -60 5 35 4 37 -7 20 -6 -11
-15 -36 -20 -55 -4 -19 -5 19 -2 85 3 66 7 121 10 124 9 9 33 -35 35 -64 1
-22 5 -14 14 28 7 33 11 69 8 80 -4 18 -3 19 6 7 6 -8 11 -26 11 -40z m-1612
-235 c-4 -80 -11 -125 -27 -165 -27 -71 -26 -78 5 -15 13 28 24 42 24 33 0
-26 -53 -164 -58 -149 -3 9 -7 9 -20 -1 -14 -12 -15 -8 -9 34 4 26 18 75 32
110 23 55 26 78 27 176 0 99 2 111 15 100 13 -10 14 -32 11 -123z m48 66 c-4
-37 -3 -49 3 -36 9 20 10 20 10 -1 1 -34 27 -87 55 -113 23 -22 26 -33 28
-100 l2 -76 3 73 c4 73 4 73 31 70 27 -3 27 -3 33 -103 4 -76 6 -88 9 -50 2
28 4 70 5 95 0 42 2 45 28 46 15 1 27 0 27 -2 0 -1 -6 -31 -14 -66 -11 -47
-13 -92 -8 -178 l8 -115 8 80 8 80 14 -52 c15 -59 13 -184 -6 -287 -7 -38 -10
-101 -8 -140 6 -85 -6 -58 -27 61 l-14 78 4 -100 c3 -55 11 -125 20 -155 8
-30 15 -59 14 -65 0 -17 -36 58 -50 105 -7 25 -19 51 -26 58 -9 9 -13 45 -14
105 -1 84 -2 88 -11 47 -5 -25 -7 -81 -4 -125 4 -70 3 -78 -9 -61 -20 27 -28
95 -23 183 3 42 1 69 -3 61 -15 -23 -10 11 16 111 14 52 25 104 24 115 0 12
-7 -2 -14 -31 -8 -29 -26 -80 -40 -113 -14 -34 -32 -87 -40 -118 l-15 -57 3
88 c2 55 0 83 -6 75 -6 -9 -7 -8 -4 4 3 9 9 34 12 55 l6 38 -20 -40 c-19 -35
-20 -36 -15 -11 3 16 7 86 9 155 l3 126 -13 -76 c-16 -97 -25 -125 -34 -110
-5 7 -13 -6 -20 -31 -7 -24 -19 -54 -27 -68 -24 -42 -11 151 15 223 26 74 51
242 51 341 0 54 3 75 11 70 7 -4 9 -27 5 -63z m85 -7 c-5 -32 -5 -63 -1 -68 5
-5 30 -11 57 -13 39 -4 70 3 169 41 78 29 150 49 204 55 97 13 102 13 75 1
-17 -7 -16 -9 10 -10 l30 -1 -32 -14 c-34 -15 -46 -29 -15 -18 10 4 3 -9 -18
-33 -20 -22 -24 -29 -9 -16 15 13 41 25 59 27 l33 4 -39 -35 -39 -35 39 25
c46 29 60 26 25 -5 l-24 -21 27 16 c35 20 81 20 116 0 l27 -16 -24 21 c-35 31
-21 34 25 5 l39 -25 -39 35 -39 35 33 -4 c18 -2 44 -14 59 -27 15 -13 11 -6
-9 16 -21 24 -28 37 -17 33 30 -11 18 3 -15 18 l-33 14 30 1 c26 1 27 3 10 10
-27 12 -22 12 75 -1 54 -6 126 -26 203 -55 122 -45 189 -55 219 -31 13 10 15
21 8 62 -11 62 -12 90 -4 82 8 -8 16 -52 17 -89 0 -15 4 -25 8 -22 13 8 11 -4
-8 -44 -22 -48 -25 -49 -88 -46 -43 2 -53 0 -49 -11 8 -20 -45 -4 -88 26 l-33
23 20 -23 20 -24 -33 17 c-33 17 -33 17 -22 -3 18 -34 -17 -26 -53 12 l-30 32
7 -27 c8 -33 5 -33 -36 -12 l-31 16 5 -26 c6 -31 -8 -34 -55 -9 -30 15 -31 15
-18 0 17 -22 2 -22 -46 -2 -19 8 -37 15 -39 15 -2 0 -1 -7 2 -15 7 -17 -11
-21 -21 -4 -5 6 -12 4 -21 -8 -14 -17 -14 -17 -28 0 -9 12 -16 14 -21 8 -10
-17 -28 -13 -21 4 3 8 4 15 2 15 -2 0 -20 -7 -39 -15 -48 -20 -63 -20 -46 2
13 15 12 15 -18 0 -47 -25 -61 -22 -55 9 l5 26 -31 -16 c-41 -21 -44 -21 -36
12 l7 27 -30 -32 c-36 -38 -71 -46 -53 -12 11 20 11 20 -22 3 l-33 -17 20 24
20 23 -33 -23 c-43 -30 -96 -46 -88 -26 4 11 -6 13 -49 11 -63 -3 -66 -2 -88
46 -19 40 -21 52 -8 44 4 -3 8 7 9 22 0 23 4 51 12 87 1 6 3 5 6 -1 3 -6 0
-38 -5 -70z m1344 -239 c9 -49 23 -103 32 -120 9 -19 16 -67 19 -130 4 -90 3
-97 -10 -75 -8 14 -20 44 -27 68 -7 25 -15 38 -20 31 -9 -15 -18 13 -34 110
l-13 76 3 -126 c2 -69 6 -139 9 -155 5 -25 4 -24 -15 11 l-20 40 6 -38 c3 -21
9 -46 12 -55 3 -12 2 -13 -4 -4 -6 8 -8 -20 -6 -75 l3 -88 -15 57 c-8 31 -26
84 -40 118 -14 33 -32 84 -40 113 -7 29 -14 42 -14 31 -1 -12 10 -65 24 -118
26 -102 31 -131 16 -108 -4 7 -6 -23 -3 -67 4 -73 -10 -175 -27 -185 -3 -2 -5
30 -3 72 2 43 -1 97 -6 122 -9 42 -10 39 -11 -41 -1 -64 -5 -90 -16 -99 -8 -7
-15 -21 -15 -31 0 -21 -37 -120 -50 -133 -5 -5 -2 15 6 45 8 30 16 101 19 159
l4 105 -14 -78 c-21 -119 -33 -146 -27 -61 2 39 -1 102 -8 140 -18 99 -21 231
-5 289 l13 50 8 -80 8 -80 8 115 c5 86 3 131 -8 178 -8 35 -14 65 -14 66 0 2
12 3 28 2 25 -1 27 -4 27 -46 1 -25 3 -67 5 -95 3 -38 5 -26 9 49 4 67 10 101
19 104 7 2 12 -7 13 -25 l1 -28 11 30 c11 28 12 25 18 -45 l5 -75 2 77 c2 68
5 79 26 96 26 20 56 81 57 116 0 21 1 21 10 1 6 -14 7 -4 3 32 -3 29 -2 58 3
65 5 8 11 -34 14 -102 4 -63 14 -155 24 -205z m33 203 c1 -98 4 -121 27 -176
14 -35 28 -84 32 -110 6 -42 5 -46 -9 -34 -13 10 -17 10 -20 1 -5 -15 -58 123
-58 149 0 9 11 -5 24 -33 31 -63 32 -56 5 15 -27 68 -39 260 -19 285 7 8 14
15 15 15 2 0 3 -51 3 -112z m-1240 19 c-2 -32 -8 -43 -22 -45 -17 -4 -18 1
-11 43 3 26 9 54 12 62 11 27 24 -13 21 -60z m139 26 c-3 -10 -5 -2 -5 17 0
19 2 27 5 18 2 -10 2 -26 0 -35z m670 0 c-3 -10 -5 -2 -5 17 0 19 2 27 5 18 2
-10 2 -26 0 -35z m168 -26 c7 -44 6 -49 -11 -45 -21 4 -30 52 -19 97 9 34 20
14 30 -52z m-1154 32 c-5 -13 -10 -19 -10 -12 -1 15 10 45 15 40 3 -2 0 -15
-5 -28z m105 -76 c-8 -19 -25 -7 -21 15 2 9 7 35 12 57 l8 40 3 -49 c2 -27 1
-55 -2 -63z m171 55 c-2 -13 -4 -5 -4 17 -1 22 1 32 4 23 2 -10 2 -28 0 -40z
m750 0 c-2 -13 -4 -5 -4 17 -1 22 1 32 4 23 2 -10 2 -28 0 -40z m184 -21 c2
-20 -1 -37 -6 -37 -6 0 -11 26 -12 57 -3 63 13 47 18 -20z m98 33 c0 -10 -3
-8 -9 5 -12 27 -12 43 0 25 5 -8 9 -22 9 -30z m-1464 -130 c-4 -23 -9 -39 -11
-37 -3 2 -2 23 2 46 4 23 9 40 11 37 3 -3 2 -23 -2 -46z m1623 -25 c0 -16 -2
-15 -8 5 -4 14 -8 36 -8 50 0 22 1 22 8 -5 4 -16 8 -39 8 -50z m-1184 -94 c-8
-10 -24 14 -24 37 l1 27 13 -30 c7 -16 12 -32 10 -34z m40 27 c19 -38 19 -38
2 -38 -15 0 -26 21 -26 51 0 27 6 24 24 -13z m56 -4 c13 -39 9 -50 -15 -41 -9
4 -15 19 -15 42 0 45 15 45 30 -1z m55 -6 c10 -21 12 -35 6 -41 -17 -17 -41
13 -41 50 0 39 12 36 35 -9z m198 35 c-7 -2 -19 -2 -25 0 -7 3 -2 5 12 5 14 0
19 -2 13 -5z m60 0 c-7 -2 -19 -2 -25 0 -7 3 -2 5 12 5 14 0 19 -2 13 -5z
m134 1 c-3 -3 -12 -4 -19 -1 -8 3 -5 6 6 6 11 1 17 -2 13 -5z m59 -72 c-23
-24 -40 -3 -24 29 29 54 33 56 36 20 2 -21 -2 -40 -12 -49z m64 43 c0 -23 -6
-38 -15 -42 -24 -9 -28 2 -15 41 15 46 30 46 30 1z m46 -10 c-4 -14 -13 -25
-21 -25 -19 0 -19 0 2 41 18 35 29 25 19 -16z m40 -1 c-3 -8 -10 -14 -15 -14
-5 0 -4 13 2 31 8 21 13 26 15 14 2 -9 1 -23 -2 -31z m-478 11 c19 -42 15 -55
-18 -55 -27 0 -30 3 -30 33 0 53 28 66 48 22z m227 -15 c0 -31 -3 -35 -27 -38
-31 -4 -36 10 -16 53 17 37 43 28 43 -15z m-301 14 c9 -23 7 -54 -3 -54 -11 0
-21 25 -21 51 0 23 15 25 24 3z m137 6 c19 -11 28 -70 10 -70 -28 0 -41 14
-41 46 0 37 2 39 31 24z m89 -24 c0 -32 -13 -46 -41 -46 -17 0 -10 59 9 69 27
16 32 13 32 -23z m130 15 c0 -26 -10 -51 -21 -51 -10 0 -12 31 -3 54 9 22 24
20 24 -3z m-1040 -78 c-11 -17 -11 -17 -6 0 3 10 6 24 7 30 0 9 2 9 5 0 3 -7
0 -20 -6 -30z m470 28 c0 -6 -4 -13 -10 -16 -5 -3 -10 1 -10 9 0 9 5 16 10 16
6 0 10 -4 10 -9z m50 1 c0 -5 -9 -17 -20 -27 -16 -14 -20 -15 -20 -4 0 16 19
39 32 39 4 0 8 -4 8 -8z m688 -4 c7 -7 12 -19 12 -27 0 -11 -4 -10 -20 4 -21
19 -26 35 -12 35 4 0 13 -5 20 -12z m42 -4 c0 -8 -4 -12 -10 -9 -5 3 -10 10
-10 16 0 5 5 9 10 9 6 0 10 -7 10 -16z m459 -29 c0 -5 -4 -3 -9 5 -5 8 -9 22
-9 30 0 16 17 -16 18 -35z m-1129 20 c0 -8 -9 -24 -20 -35 -17 -17 -21 -18
-26 -6 -7 19 13 56 31 56 8 0 15 -7 15 -15z m580 -6 c7 -11 9 -27 6 -35 -5
-12 -9 -11 -26 6 -11 11 -20 27 -20 35 0 22 28 18 40 -6z m-480 -48 c-22 -54
-44 -32 -28 28 9 31 11 33 25 18 14 -13 14 -20 3 -46z m90 29 c0 -10 -9 -28
-20 -41 -17 -21 -21 -22 -30 -9 -15 23 -12 58 7 68 22 13 43 4 43 -18z m220
-13 c0 -12 -5 -29 -10 -37 -9 -13 -13 -12 -30 9 -23 26 -26 57 -7 64 21 7 47
-12 47 -36z m59 5 c7 -22 6 -34 -4 -42 -19 -16 -42 44 -25 65 15 19 18 17 29
-23z m-419 12 c0 -23 -20 -55 -31 -49 -10 7 -12 48 -2 58 12 13 33 7 33 -9z
m210 1 c0 -24 -23 -66 -34 -62 -13 4 -20 42 -12 63 7 18 46 18 46 -1z m65 -24
c0 -42 -17 -50 -33 -16 -19 40 -15 57 11 53 18 -2 22 -9 22 -37z m203 16 c2
-10 1 -26 -3 -35 -6 -16 -8 -15 -21 2 -20 28 -18 58 3 54 10 -2 19 -11 21 -21z
m-668 9 c0 -11 -19 -15 -25 -6 -3 5 1 10 9 10 9 0 16 -2 16 -4z m850 0 c0 -11
-19 -15 -25 -6 -3 5 1 10 9 10 9 0 16 -2 16 -4z m-810 -27 c0 -6 9 -9 20 -6
10 3 25 -2 31 -9 7 -8 19 -12 27 -9 8 3 21 0 28 -6 8 -6 21 -9 29 -5 9 3 24 0
35 -6 14 -9 22 -9 34 2 14 11 20 10 39 -8 21 -20 24 -21 40 -5 15 16 18 16 35
0 17 -15 19 -15 35 0 15 16 18 16 35 0 17 -15 19 -15 35 0 16 16 18 16 34 0
16 -16 18 -15 40 5 19 18 25 19 39 8 12 -11 20 -11 34 -2 11 6 26 9 35 6 8 -4
21 -1 29 5 7 6 20 9 28 6 8 -3 20 1 27 9 6 7 21 12 31 9 11 -3 20 0 20 6 0 6
9 11 21 11 11 0 17 -5 14 -10 -4 -6 -10 -8 -15 -5 -4 3 -13 -2 -20 -10 -7 -8
-16 -12 -22 -9 -5 3 -15 0 -23 -6 -8 -7 -24 -10 -35 -7 -10 3 -25 -1 -31 -9
-9 -11 -15 -12 -26 -3 -7 7 -17 8 -21 4 -4 -4 -1 -10 6 -12 6 -3 9 -10 5 -16
-3 -7 -3 -9 2 -5 4 4 14 3 22 -3 10 -9 13 -8 13 5 0 22 26 31 44 17 11 -10 16
-8 21 9 5 17 9 19 21 9 12 -10 18 -8 29 7 8 10 15 15 15 10 0 -5 9 -1 20 9 20
18 20 17 20 -23 0 -23 -4 -42 -10 -42 -5 0 -12 -11 -16 -25 -7 -27 -18 -32
-30 -13 -6 9 -10 5 -14 -11 -7 -31 -40 -37 -41 -8 -1 14 -5 9 -11 -15 -11 -42
-47 -61 -49 -25 -1 18 -2 19 -6 4 -3 -12 -11 -16 -23 -12 -10 3 -21 1 -25 -5
-3 -6 -10 -8 -14 -5 -5 2 -12 -10 -16 -28 -5 -22 -9 -26 -12 -14 -2 9 -8 17
-13 17 -5 0 -14 -8 -19 -17 -10 -17 -10 -16 -11 2 -1 20 -1 20 -15 1 -15 -19
-15 -19 -16 5 -1 20 -2 21 -6 4 -7 -28 -17 -32 -79 -34 l-53 -1 -8 38 -7 37
-6 -35 -6 -35 -15 30 -14 29 -6 -34 -6 -35 -16 35 c-15 33 -17 34 -23 13 -8
-27 -12 -28 -36 -6 -17 15 -18 15 -18 0 0 -26 -20 -20 -33 11 -9 20 -18 26
-34 24 -18 -3 -24 4 -32 30 -5 18 -10 26 -10 16 -1 -25 -35 -15 -41 13 -6 23
-6 23 -18 4 -10 -19 -12 -18 -22 13 -7 17 -16 32 -21 32 -5 0 -9 19 -9 42 0
40 0 41 20 23 11 -10 20 -14 20 -9 0 5 7 0 15 -10 11 -15 17 -17 29 -7 12 10
16 8 21 -9 5 -17 10 -19 21 -9 18 14 44 5 44 -17 0 -13 3 -14 13 -5 8 6 18 7
22 3 5 -4 5 -2 2 5 -4 6 -1 13 5 16 7 2 10 8 6 12 -4 4 -14 3 -21 -4 -11 -9
-17 -8 -26 3 -6 8 -21 12 -31 9 -11 -3 -27 0 -35 7 -8 6 -18 9 -23 6 -6 -3
-15 1 -22 9 -7 8 -16 13 -20 10 -5 -3 -11 -1 -15 5 -3 5 3 10 14 10 12 0 21
-5 21 -11z m-509 -44 c5 4 9 -5 9 -19 0 -23 -13 -32 -105 -77 -57 -28 -136
-61 -174 -73 l-70 -22 17 -25 c9 -14 24 -24 32 -23 8 0 9 -1 3 -3 -16 -5 -17
-19 -3 -28 21 -13 9 -35 -29 -54 -28 -15 -41 -17 -49 -9 -15 15 -43 -8 -35
-28 6 -16 39 -19 46 -4 3 6 4 5 3 -2 -2 -7 -18 -13 -37 -14 -19 0 -51 -9 -72
-20 l-39 -20 36 -32 c52 -46 110 -45 190 3 32 20 60 34 62 32 3 -2 -24 -22
-58 -43 -100 -62 -171 -52 -232 30 -29 38 -29 124 0 163 23 30 143 105 156 97
4 -3 8 -1 8 5 0 5 73 50 163 100 121 68 163 87 165 76 2 -8 8 -13 13 -10z
m1939 -66 c88 -50 160 -96 160 -101 0 -5 4 -7 8 -4 14 8 133 -66 156 -97 29
-39 29 -125 0 -163 -61 -82 -132 -91 -232 -29 -34 21 -61 40 -58 42 2 2 30
-12 62 -32 80 -48 138 -49 190 -3 l36 32 -44 22 c-27 14 -53 20 -70 17 -22 -4
-29 -1 -36 17 -5 13 -24 32 -44 44 -19 12 -60 36 -91 54 -31 19 -57 36 -57 38
0 8 105 -48 109 -58 1 -5 9 -1 17 9 17 23 17 30 2 36 -7 2 -6 3 2 3 8 -1 23 9
32 23 l17 25 -67 21 c-37 12 -107 40 -157 63 -104 49 -88 32 27 -28 44 -23 77
-44 74 -47 -5 -6 -149 63 -203 96 -18 12 -33 26 -33 31 0 6 6 8 13 4 9 -6 9
-4 -1 8 -14 17 -1 68 18 68 5 0 82 -41 170 -91z m-1760 -39 c-7 -28 -14 -49
-16 -47 -3 2 1 27 8 55 6 29 13 50 16 47 2 -2 -1 -27 -8 -55z m1429 -75 c-2
-17 -38 99 -38 120 0 11 9 -9 19 -45 11 -36 19 -69 19 -75z m-1598 112 c-15
-19 -219 -122 -226 -115 -3 3 38 29 92 58 54 28 102 56 108 61 5 5 15 9 23 9
11 0 12 -3 3 -13z m33 -32 c-4 -8 -8 -15 -10 -15 -2 0 -4 7 -4 15 0 8 4 15 10
15 5 0 7 -7 4 -15z m1686 0 c0 -8 -2 -15 -4 -15 -2 0 -6 7 -10 15 -3 8 -1 15
4 15 6 0 10 -7 10 -15z m-1225 -62 c5 -10 11 -52 15 -93 l7 -75 2 80 c3 94 17
76 27 -33 5 -53 2 -79 -14 -125 -11 -31 -24 -83 -28 -115 l-8 -57 -11 38 c-6
21 -13 35 -17 32 -10 -10 -20 103 -12 152 9 66 -3 50 -15 -18 -6 -40 -9 -46
-10 -21 0 18 5 65 13 105 8 40 17 89 21 110 6 40 18 48 30 20z m780 -20 c4
-21 13 -70 21 -110 8 -40 13 -87 13 -105 -1 -25 -4 -19 -10 21 -5 30 -11 56
-12 57 -1 2 -2 -40 -2 -92 0 -57 -5 -98 -11 -102 -6 -4 -15 -20 -21 -37 -9
-29 -10 -27 -17 27 -4 32 -17 84 -28 115 -16 46 -19 72 -14 125 10 107 24 128
27 38 l2 -75 7 70 c11 108 33 141 45 68z m-1450 -51 c-22 -19 -105 -62 -105
-54 0 4 24 20 53 34 56 29 66 33 52 20z m1822 -24 c-3 -7 -5 -2 -5 12 0 14 2
19 5 13 2 -7 2 -19 0 -25z m-1592 13 c-18 -16 -240 -153 -228 -141 17 18 216
148 228 149 6 1 6 -2 0 -8z m1749 -66 c64 -42 116 -78 116 -81 0 -2 -24 10
-52 29 -29 18 -83 53 -120 76 -61 39 -77 51 -64 51 3 0 57 -34 120 -75z m-660
11 c9 -30 20 -56 24 -58 14 -6 52 -106 51 -135 0 -24 -2 -25 -8 -8 -6 16 -10
9 -15 -30 -4 -27 -14 -63 -21 -80 l-13 -30 -2 30 c-2 30 -2 30 -10 5 -7 -23
-8 -22 -9 10 -1 19 -12 81 -26 138 -26 107 -32 177 -16 187 6 3 12 -14 14 -37
3 -41 4 -41 5 10 1 28 4 52 6 52 3 0 12 -24 20 -54z m-434 -19 c0 -33 -12 -90
-34 -152 l-33 -100 -7 41 c-6 31 -1 56 18 108 14 37 28 89 32 116 8 64 24 55
24 -13z m299 -95 c1 -40 -3 -61 -9 -57 -6 4 -10 -6 -10 -24 0 -16 -4 -32 -9
-35 -5 -3 -14 -27 -21 -53 l-12 -48 -13 40 -12 40 -13 -63 c-7 -34 -16 -65
-20 -67 -11 -7 -24 90 -22 165 l1 65 -14 -65 c-7 -36 -14 -94 -14 -129 -1 -70
-6 -70 -41 -7 -18 32 -22 56 -22 125 0 116 -16 54 -20 -77 -2 -77 -5 -90 -15
-75 -22 29 -53 122 -53 156 0 49 12 107 20 102 4 -3 11 12 15 32 10 55 37 115
46 106 5 -5 13 -33 18 -63 l9 -55 1 47 c1 54 20 76 22 26 2 -32 2 -32 8 7 l7
40 7 -45 c4 -25 8 -58 10 -75 2 -16 5 1 6 39 1 75 9 79 28 13 l11 -42 1 37 c2
71 15 77 27 13 l12 -60 1 61 c1 45 5 63 16 68 12 4 15 -3 16 -32 1 -20 3 -28
6 -17 14 69 16 71 24 20 4 -27 8 -78 8 -113z m-389 108 c7 20 9 15 11 -25 l2
-50 8 45 c7 39 7 36 4 -20 -2 -40 -13 -88 -29 -125 -14 -33 -28 -79 -32 -102
-3 -24 -10 -43 -15 -43 -5 0 -10 19 -10 43 l-2 42 -6 -35 -7 -35 -12 53 c-7
29 -12 62 -12 73 0 24 39 119 56 136 7 7 16 27 20 45 l8 33 5 -30 c4 -30 4
-30 11 -5z m435 -25 c7 -5 22 -46 34 -91 23 -89 27 -142 6 -79 l-14 40 6 -47
c6 -53 -16 -132 -28 -101 -5 11 -8 2 -8 -27 -1 -26 -5 -40 -10 -35 -8 9 -17
304 -11 370 3 28 3 28 7 5 3 -13 11 -29 18 -35z m-1435 -15 c0 -5 -7 -10 -16
-10 -8 0 -12 5 -9 10 3 6 10 10 16 10 5 0 9 -4 9 -10z m624 -125 c4 -20 3 -25
-3 -15 -5 8 -11 31 -15 50 -7 41 7 13 18 -35z m770 -130 c5 -42 4 -56 -3 -45
-10 13 -16 119 -7 109 2 -2 7 -31 10 -64z"/>
<path d="M2285 4029 c-4 -6 -5 -12 -2 -15 2 -3 7 2 10 11 7 17 1 20 -8 4z"/>
<path d="M3020 3856 c25 -7 55 -18 68 -25 12 -6 22 -9 22 -6 0 11 -85 45 -110
44 -17 -1 -11 -5 20 -13z"/>
<path d="M2882 3530 c0 -14 2 -19 5 -12 2 6 2 18 0 25 -3 6 -5 1 -5 -13z"/>
<path d="M2246 3378 c-10 -40 -7 -88 9 -118 22 -42 27 -37 8 7 -10 25 -13 53
-10 85 6 51 3 62 -7 26z"/>
<path d="M2747 3355 c3 -34 0 -63 -10 -88 -19 -44 -14 -49 8 -7 16 31 19 93 5
125 -5 13 -6 2 -3 -30z"/>
<path d="M2040 3223 c0 -5 10 -18 23 -29 l22 -19 -20 25 c-11 14 -21 27 -22
29 -2 2 -3 0 -3 -6z"/>
<path d="M2936 3202 l-19 -27 24 22 c12 12 21 24 18 27 -2 2 -13 -8 -23 -22z"/>
<path d="M1885 3108 c4 -13 16 -47 27 -76 16 -41 24 -52 37 -46 9 4 48 10 86
13 67 7 68 7 32 15 -21 5 -60 6 -88 4 l-49 -5 -21 58 c-21 58 -37 81 -24 37z"/>
<path d="M3091 3071 l-21 -58 -49 5 c-28 2 -67 1 -88 -4 -36 -8 -35 -8 32 -15
39 -3 77 -9 86 -13 12 -5 21 4 36 41 21 50 36 103 30 103 -3 0 -14 -26 -26
-59z"/>
<path d="M2350 2993 c0 -13 29 -38 35 -31 3 3 -4 13 -15 23 -11 10 -20 13 -20
8z"/>
<path d="M2625 2980 c-10 -11 -13 -20 -8 -20 13 0 38 29 31 35 -3 3 -13 -4
-23 -15z"/>
<path d="M2020 2936 c-84 -23 -90 -34 -14 -29 52 4 83 0 128 -15 l59 -20 -44
39 c-48 41 -61 44 -129 25z"/>
<path d="M2851 2911 l-44 -39 59 20 c45 15 76 19 129 16 l70 -5 -40 18 c-22 9
-60 20 -85 23 -42 6 -48 3 -89 -33z"/>
<path d="M1946 2875 c-65 -23 -64 -21 -102 -206 -8 -34 18 -94 50 -114 29 -19
154 -28 224 -15 26 4 42 4 42 -2 0 -14 73 30 85 51 5 9 10 23 12 31 3 24 36
90 44 90 13 0 -17 -106 -41 -146 -18 -30 -20 -36 -6 -25 21 17 48 69 76 145
12 30 27 60 35 66 13 11 13 8 1 -21 -8 -19 -16 -54 -20 -79 l-6 -45 20 55 c11
30 30 66 41 80 l20 25 -6 -25 c-6 -24 -5 -24 14 4 11 17 31 36 45 43 32 17 67
2 97 -43 19 -28 20 -28 14 -4 l-6 25 20 -25 c11 -14 30 -50 41 -80 l20 -55 -6
45 c-4 25 -12 60 -20 79 -12 29 -12 32 1 21 8 -6 23 -36 35 -66 28 -76 55
-128 76 -145 14 -11 12 -5 -6 25 -24 40 -54 146 -41 146 8 0 41 -66 44 -90 2
-8 7 -22 12 -31 12 -21 85 -65 85 -51 0 6 16 6 43 2 69 -13 194 -4 223 15 32
20 58 80 50 114 -31 151 -36 167 -56 183 -28 23 -84 38 -141 38 -52 0 -152
-27 -145 -39 9 -13 -102 -51 -147 -51 l-42 0 60 25 c69 29 68 28 59 14 -3 -6
8 -3 25 5 17 9 31 18 31 20 0 7 -69 -3 -88 -13 -12 -6 -27 -11 -34 -10 -7 0
-3 4 10 9 12 5 22 14 22 19 0 6 -19 1 -42 -9 -24 -11 -52 -19 -63 -19 -13 0
-8 5 15 14 20 8 27 14 17 14 -10 1 -15 6 -12 11 11 17 -5 11 -42 -17 -28 -21
-48 -28 -83 -28 -35 0 -55 7 -83 28 -37 28 -53 34 -42 17 3 -5 -2 -10 -12 -11
-10 0 -3 -6 17 -14 23 -9 28 -14 15 -14 -11 0 -39 8 -62 19 -24 10 -43 15 -43
9 0 -5 10 -14 23 -19 12 -5 16 -9 9 -9 -7 -1 -22 4 -34 10 -19 10 -88 20 -88
13 0 -2 14 -11 31 -20 17 -8 28 -11 25 -5 -9 14 -10 15 59 -14 l60 -25 -42 0
c-45 0 -156 38 -147 51 7 13 -94 39 -150 39 -28 -1 -69 -7 -90 -15z"/>
<path d="M2417 2878 c11 -18 75 -39 102 -33 14 3 37 14 51 25 25 19 25 19 -22
3 -43 -14 -53 -14 -93 -1 -24 8 -42 11 -38 6z"/>
<path d="M2477 2778 c-15 -11 -12 -13 23 -13 35 0 38 2 23 13 -9 6 -20 12 -23
12 -3 0 -14 -6 -23 -12z"/>
<path d="M2475 2673 c-29 -7 -45 -32 -45 -70 0 -20 -15 -62 -35 -100 -41 -77
-48 -150 -17 -180 10 -10 29 -33 41 -50 28 -41 38 -42 39 -1 0 17 6 34 12 38
9 6 9 21 0 64 -10 49 -9 61 4 81 9 13 16 36 16 50 0 14 5 25 10 25 6 0 10 -11
10 -25 0 -14 7 -37 16 -50 13 -20 14 -32 4 -81 -9 -43 -9 -58 0 -64 6 -4 12
-21 12 -38 1 -41 11 -40 39 1 12 17 31 40 41 50 31 30 24 103 -17 180 -20 38
-35 80 -35 100 0 18 -6 40 -12 49 -15 18 -53 27 -83 21z"/>
<path d="M1850 2566 c17 -21 70 -49 78 -42 3 3 1 6 -5 6 -6 0 -28 12 -49 26
-21 15 -32 19 -24 10z"/>
<path d="M3141 2566 c-7 -8 -31 -24 -54 -35 -23 -12 -36 -21 -29 -21 20 0 65
26 86 49 11 12 17 21 14 21 -3 0 -11 -6 -17 -14z"/>
<path d="M2195 2534 c-22 -13 -33 -24 -25 -24 8 0 29 11 45 25 37 30 32 30
-20 -1z"/>
<path d="M2766 2549 c6 -11 64 -42 69 -37 2 2 -14 13 -36 25 -21 12 -37 17
-33 12z"/>
<path d="M1860 2511 c8 -15 67 -37 76 -28 2 1 -17 12 -42 24 -40 20 -43 20
-34 4z"/>
<path d="M3100 2504 c-28 -16 -36 -23 -20 -20 14 3 30 6 37 6 7 0 17 9 23 20
6 11 9 20 8 19 -2 0 -23 -12 -48 -25z"/>
<path d="M2123 2465 c47 -16 42 -11 66 -68 11 -26 22 -47 25 -47 7 0 -1 78
-10 91 -9 15 -69 39 -96 39 -17 -1 -13 -5 15 -15z"/>
<path d="M2834 2466 c-17 -8 -34 -22 -39 -32 -9 -22 -15 -84 -9 -84 3 0 14 21
25 47 24 57 19 52 66 68 31 12 33 14 13 14 -14 0 -39 -6 -56 -13z"/>
<path d="M2290 2447 c0 -12 -3 -33 -6 -47 -5 -21 -2 -19 20 12 31 44 31 44 6
51 -15 4 -20 0 -20 -16z"/>
<path d="M2688 2462 c-23 -5 -23 -6 7 -50 l26 -37 -7 45 c-8 52 -5 47 -26 42z"/>
<path d="M2490 2395 c0 -25 5 -45 10 -45 6 0 10 20 10 45 0 25 -4 45 -10 45
-5 0 -10 -20 -10 -45z"/>
<path d="M2350 2323 c0 -13 29 -38 35 -31 3 3 -4 13 -15 23 -11 10 -20 13 -20
8z"/>
<path d="M2625 2310 c-10 -11 -13 -20 -8 -20 13 0 38 29 31 35 -3 3 -13 -4
-23 -15z"/>
<path d="M2317 2307 c-11 -29 15 -92 41 -95 27 -4 28 9 2 33 -11 10 -24 32
-28 49 -6 24 -10 27 -15 13z"/>
<path d="M2667 2291 c-4 -17 -16 -39 -27 -48 -26 -23 -25 -35 2 -31 27 4 54
69 39 95 -6 12 -9 8 -14 -16z"/>
<path d="M678 3226 c-52 -42 -76 -66 -64 -66 3 0 21 14 41 31 l35 31 103 -57
c56 -32 105 -60 110 -62 4 -2 7 -2 7 0 0 3 -45 31 -100 62 -55 32 -103 61
-106 66 -8 14 2 11 40 -12 20 -12 36 -18 36 -15 0 3 -14 13 -31 21 -25 13 -28
19 -18 31 19 23 7 16 -53 -30z"/>
<path d="M810 3186 c0 -3 14 -12 30 -21 17 -9 30 -13 30 -11 0 3 -13 12 -30
21 -16 9 -30 13 -30 11z"/>
<path d="M880 3145 c0 -2 18 -14 40 -25 22 -11 40 -18 40 -15 0 2 -18 14 -40
25 -22 11 -40 18 -40 15z"/>
<path d="M920 3096 c0 -3 14 -12 30 -21 17 -9 30 -13 30 -11 0 3 -13 12 -30
21 -16 9 -30 13 -30 11z"/>
<path d="M4158 3174 c-38 -20 -36 -28 2 -9 17 9 30 18 30 20 0 7 -1 6 -32 -11z"/>
<path d="M4068 3124 c-38 -20 -36 -28 2 -9 17 9 30 18 30 20 0 7 -1 6 -32 -11z"/>
<path d="M4048 3084 c-38 -20 -36 -28 2 -9 17 9 30 18 30 20 0 7 -1 6 -32 -11z"/>
<path d="M1892 1740 c0 -19 2 -27 5 -17 2 9 2 25 0 35 -3 9 -5 1 -5 -18z"/>
<path d="M3102 1740 c0 -19 2 -27 5 -17 2 9 2 25 0 35 -3 9 -5 1 -5 -18z"/>
<path d="M2334 1699 c-3 -6 -15 -8 -26 -6 -14 4 -18 2 -14 -10 3 -8 6 -19 6
-25 0 -6 7 -5 16 3 25 21 48 17 61 -11 l11 -25 11 27 c7 20 15 26 28 22 15 -5
16 -4 3 5 -10 7 -11 11 -3 11 16 0 33 -32 34 -67 1 -30 3 -26 13 20 4 18 13
27 26 27 13 0 22 -9 26 -27 10 -46 12 -50 13 -20 1 35 18 67 34 67 8 0 7 -4
-3 -11 -13 -9 -12 -10 3 -5 13 4 21 -2 28 -22 l11 -27 11 25 c13 28 36 32 61
11 9 -8 16 -9 16 -3 0 6 3 18 6 26 5 12 2 15 -10 10 -9 -3 -23 -1 -31 6 -13
10 -19 10 -33 -4 -23 -20 -31 -20 -52 -1 -15 14 -18 14 -30 0 -12 -14 -15 -14
-31 1 -18 16 -20 16 -38 0 -16 -15 -20 -15 -30 -2 -11 14 -16 13 -37 -1 -22
-14 -26 -14 -43 1 -21 19 -27 20 -37 5z m26 -9 c0 -5 -5 -10 -11 -10 -5 0 -7
5 -4 10 3 6 8 10 11 10 2 0 4 -4 4 -10z m295 0 c3 -5 1 -10 -4 -10 -6 0 -11 5
-11 10 0 6 2 10 4 10 3 0 8 -4 11 -10z"/>
<path d="M3747 1383 c-15 -15 -7 -43 13 -43 11 0 20 5 20 10 0 6 -7 10 -15 10
-8 0 -15 5 -15 11 0 6 7 8 16 5 8 -3 12 -2 9 4 -7 12 -19 13 -28 3z"/>
<path d="M2251 1314 c0 -11 3 -14 6 -6 3 7 2 16 -1 19 -3 4 -6 -2 -5 -13z"/>
</g>
</svg>
